<svg width="580" height="345" viewBox="0 0 580 345" fill="none" xmlns="http://www.w3.org/2000/svg">
<rect x="40.5" y="270.5" width="194" height="59" rx="29.5" stroke="white" stroke-opacity="0.5"/>
<path d="M61.6016 307V292.938H65.8496C67.5033 292.938 68.8574 293.217 69.9121 293.777C70.9733 294.337 71.7578 295.138 72.2656 296.18C72.7734 297.215 73.0273 298.445 73.0273 299.871C73.0273 301.486 72.7279 302.82 72.1289 303.875C71.5299 304.93 70.6836 305.714 69.5898 306.229C68.4961 306.743 67.207 307 65.7227 307H61.6016ZM63.3594 305.555H65.5469C69.2643 305.555 71.123 303.693 71.123 299.969C71.123 298.829 70.9375 297.843 70.5664 297.01C70.2018 296.17 69.6191 295.522 68.8184 295.066C68.0241 294.611 66.9759 294.383 65.6738 294.383H63.3594V305.555ZM80.1855 307.234C79.1829 307.234 78.3138 307.01 77.5781 306.561C76.849 306.111 76.2858 305.477 75.8887 304.656C75.4915 303.829 75.293 302.856 75.293 301.736C75.293 300.61 75.4915 299.633 75.8887 298.807C76.2858 297.98 76.8457 297.342 77.5684 296.893C78.291 296.443 79.1406 296.219 80.1172 296.219C80.6771 296.219 81.237 296.31 81.7969 296.492C82.3633 296.668 82.8776 296.977 83.3398 297.42C83.8086 297.856 84.1829 298.458 84.4629 299.227C84.7493 299.988 84.8926 300.952 84.8926 302.117H76.3477V300.789H83.4668L82.998 301.404C82.9655 300.48 82.8158 299.738 82.5488 299.178C82.2819 298.618 81.9336 298.214 81.5039 297.967C81.0807 297.713 80.6087 297.586 80.0879 297.586C79.4694 297.586 78.9355 297.749 78.4863 298.074C78.0371 298.393 77.6921 298.862 77.4512 299.48C77.2103 300.099 77.0898 300.854 77.0898 301.746C77.0898 303.061 77.3568 304.077 77.8906 304.793C78.431 305.509 79.196 305.867 80.1855 305.867C80.8952 305.867 81.4909 305.688 81.9727 305.33C82.4609 304.972 82.819 304.454 83.0469 303.777L84.6582 304.324C84.4043 304.936 84.0658 305.46 83.6426 305.896C83.2194 306.326 82.7148 306.658 82.1289 306.893C81.5495 307.12 80.9017 307.234 80.1855 307.234ZM88.916 307C88.4993 307 88.1348 306.863 87.8223 306.59C87.5098 306.31 87.3535 305.958 87.3535 305.535V292.352H88.9941V305.096C88.9941 305.311 89.0234 305.454 89.082 305.525C89.1471 305.597 89.2806 305.633 89.4824 305.633H90.5078V307H88.916ZM92.6953 307V296.453H94.3359V307H92.6953ZM93.5156 294.686C93.138 294.686 92.8158 294.552 92.5488 294.285C92.2819 294.018 92.1484 293.696 92.1484 293.318C92.1484 292.934 92.2819 292.612 92.5488 292.352C92.8158 292.085 93.138 291.951 93.5156 291.951C93.8997 291.951 94.222 292.085 94.4824 292.352C94.7493 292.612 94.8828 292.934 94.8828 293.318C94.8828 293.696 94.7493 294.018 94.4824 294.285C94.222 294.552 93.8997 294.686 93.5156 294.686ZM100.303 307L96.3379 296.453H98.1543L101.504 306.072H101.191L104.521 296.453H106.338L102.393 307H100.303ZM112.393 307.234C111.39 307.234 110.521 307.01 109.785 306.561C109.056 306.111 108.493 305.477 108.096 304.656C107.699 303.829 107.5 302.856 107.5 301.736C107.5 300.61 107.699 299.633 108.096 298.807C108.493 297.98 109.053 297.342 109.775 296.893C110.498 296.443 111.348 296.219 112.324 296.219C112.884 296.219 113.444 296.31 114.004 296.492C114.57 296.668 115.085 296.977 115.547 297.42C116.016 297.856 116.39 298.458 116.67 299.227C116.956 299.988 117.1 300.952 117.1 302.117H108.555V300.789H115.674L115.205 301.404C115.173 300.48 115.023 299.738 114.756 299.178C114.489 298.618 114.141 298.214 113.711 297.967C113.288 297.713 112.816 297.586 112.295 297.586C111.676 297.586 111.143 297.749 110.693 298.074C110.244 298.393 109.899 298.862 109.658 299.48C109.417 300.099 109.297 300.854 109.297 301.746C109.297 303.061 109.564 304.077 110.098 304.793C110.638 305.509 111.403 305.867 112.393 305.867C113.102 305.867 113.698 305.688 114.18 305.33C114.668 304.972 115.026 304.454 115.254 303.777L116.865 304.324C116.611 304.936 116.273 305.46 115.85 305.896C115.426 306.326 114.922 306.658 114.336 306.893C113.757 307.12 113.109 307.234 112.393 307.234ZM119.58 307V296.453H121.123V298.689L121.064 298.436C121.377 297.706 121.846 297.156 122.471 296.785C123.102 296.408 123.74 296.219 124.385 296.219C124.574 296.219 124.756 296.235 124.932 296.268C125.114 296.3 125.283 296.355 125.439 296.434L125.225 297.977C124.867 297.866 124.512 297.811 124.16 297.811C123.939 297.811 123.662 297.856 123.33 297.947C123.005 298.032 122.679 298.208 122.354 298.475C122.035 298.735 121.764 299.126 121.543 299.646C121.328 300.167 121.221 300.861 121.221 301.727V307H119.58ZM128.135 310.809V309.441H129.736C129.854 309.441 129.945 309.402 130.01 309.324C130.075 309.253 130.137 309.135 130.195 308.973L130.957 306.795L130.791 307.547L126.553 296.453H128.389L131.748 306.17L131.387 306.082L134.736 296.453H136.553L131.523 309.627C131.387 309.985 131.156 310.271 130.83 310.486C130.505 310.701 130.166 310.809 129.814 310.809H128.135ZM140.781 307V294.383H135.752V292.938H147.588V294.383H142.539V307H140.781ZM147.666 307V296.453H149.209V298.689L149.15 298.436C149.463 297.706 149.932 297.156 150.557 296.785C151.188 296.408 151.826 296.219 152.471 296.219C152.66 296.219 152.842 296.235 153.018 296.268C153.2 296.3 153.369 296.355 153.525 296.434L153.311 297.977C152.952 297.866 152.598 297.811 152.246 297.811C152.025 297.811 151.748 297.856 151.416 297.947C151.09 298.032 150.765 298.208 150.439 298.475C150.12 298.735 149.85 299.126 149.629 299.646C149.414 300.167 149.307 300.861 149.307 301.727V307H147.666ZM157.773 307.234C157.07 307.234 156.458 307.101 155.938 306.834C155.423 306.561 155.026 306.189 154.746 305.721C154.466 305.252 154.326 304.721 154.326 304.129C154.326 303.497 154.512 302.915 154.883 302.381C155.254 301.847 155.827 301.421 156.602 301.102C157.383 300.776 158.382 300.613 159.6 300.613H161.357L161.182 300.789V300.213C161.182 299.367 161.012 298.719 160.674 298.27C160.335 297.814 159.769 297.586 158.975 297.586C158.226 297.586 157.65 297.781 157.246 298.172C156.842 298.556 156.628 299.074 156.602 299.725L154.756 299.305C154.814 298.738 155.029 298.224 155.4 297.762C155.778 297.293 156.279 296.919 156.904 296.639C157.536 296.359 158.265 296.219 159.092 296.219C159.945 296.219 160.638 296.382 161.172 296.707C161.712 297.026 162.109 297.488 162.363 298.094C162.617 298.699 162.744 299.428 162.744 300.281V305.096C162.744 305.311 162.773 305.454 162.832 305.525C162.897 305.597 163.031 305.633 163.232 305.633H163.828V307H162.783C162.34 307 161.969 306.863 161.67 306.59C161.37 306.31 161.221 305.958 161.221 305.535V304.793H161.465C161.361 305.066 161.211 305.346 161.016 305.633C160.82 305.913 160.573 306.176 160.273 306.424C159.974 306.665 159.616 306.86 159.199 307.01C158.789 307.16 158.314 307.234 157.773 307.234ZM158.145 305.867C158.685 305.867 159.186 305.734 159.648 305.467C160.111 305.2 160.482 304.783 160.762 304.217C161.048 303.644 161.191 302.902 161.191 301.99V301.902H159.541C158.675 301.902 157.992 302.016 157.49 302.244C156.995 302.472 156.644 302.755 156.436 303.094C156.227 303.426 156.123 303.758 156.123 304.09C156.123 304.422 156.198 304.721 156.348 304.988C156.497 305.255 156.722 305.47 157.021 305.633C157.321 305.789 157.695 305.867 158.145 305.867ZM170.312 307.234C169.323 307.234 168.467 307.01 167.744 306.561C167.021 306.111 166.465 305.477 166.074 304.656C165.684 303.829 165.488 302.853 165.488 301.727C165.488 300.6 165.684 299.627 166.074 298.807C166.465 297.98 167.021 297.342 167.744 296.893C168.467 296.443 169.323 296.219 170.312 296.219C171.068 296.219 171.742 296.359 172.334 296.639C172.933 296.912 173.438 297.309 173.848 297.83C174.264 298.344 174.57 298.966 174.766 299.695L173.096 300.135C172.913 299.314 172.585 298.686 172.109 298.25C171.641 297.807 171.042 297.586 170.312 297.586C169.342 297.586 168.594 297.947 168.066 298.67C167.546 299.386 167.285 300.405 167.285 301.727C167.285 303.055 167.546 304.077 168.066 304.793C168.594 305.509 169.342 305.867 170.312 305.867C171.035 305.867 171.631 305.656 172.1 305.232C172.568 304.803 172.897 304.184 173.086 303.377L174.746 303.846C174.59 304.38 174.375 304.855 174.102 305.271C173.828 305.688 173.503 306.043 173.125 306.336C172.754 306.629 172.331 306.85 171.855 307C171.387 307.156 170.872 307.234 170.312 307.234ZM177.148 307V292.352H178.789V301.17L183.74 296.453H185.977L181.621 300.457L186.064 307H184.121L180.43 301.551L178.789 303.064V307H177.148ZM188.047 307V296.453H189.688V307H188.047ZM188.867 294.686C188.49 294.686 188.167 294.552 187.9 294.285C187.633 294.018 187.5 293.696 187.5 293.318C187.5 292.934 187.633 292.612 187.9 292.352C188.167 292.085 188.49 291.951 188.867 291.951C189.251 291.951 189.574 292.085 189.834 292.352C190.101 292.612 190.234 292.934 190.234 293.318C190.234 293.696 190.101 294.018 189.834 294.285C189.574 294.552 189.251 294.686 188.867 294.686ZM192.881 307V296.453H194.424V298.836L194.355 298.406C194.635 297.801 195.078 297.286 195.684 296.863C196.289 296.434 197.025 296.219 197.891 296.219C198.639 296.219 199.284 296.385 199.824 296.717C200.365 297.049 200.781 297.524 201.074 298.143C201.367 298.755 201.514 299.493 201.514 300.359V307H199.873V300.486C199.873 299.62 199.694 298.921 199.336 298.387C198.984 297.853 198.402 297.586 197.588 297.586C196.709 297.586 195.977 297.921 195.391 298.592C194.811 299.256 194.521 300.219 194.521 301.482V307H192.881ZM208.408 311.043C206.839 311.043 205.684 310.822 204.941 310.379C204.199 309.943 203.828 309.266 203.828 308.348C203.828 307.827 203.962 307.361 204.229 306.951C204.495 306.541 204.958 306.225 205.615 306.004C205.368 305.854 205.166 305.656 205.01 305.408C204.854 305.161 204.775 304.884 204.775 304.578C204.775 304.214 204.889 303.888 205.117 303.602C205.345 303.309 205.671 303.1 206.094 302.977C205.573 302.671 205.166 302.257 204.873 301.736C204.587 301.209 204.443 300.597 204.443 299.9C204.443 299.145 204.609 298.494 204.941 297.947C205.28 297.394 205.758 296.967 206.377 296.668C207.002 296.368 207.744 296.219 208.604 296.219C209.463 296.219 210.205 296.368 210.83 296.668C211.462 296.967 211.947 297.394 212.285 297.947C212.63 298.501 212.803 299.158 212.803 299.92C212.803 300.669 212.63 301.316 212.285 301.863C211.947 302.404 211.462 302.824 210.83 303.123C210.199 303.416 209.447 303.562 208.574 303.562H207.666C206.846 303.562 206.436 303.807 206.436 304.295C206.436 304.757 206.833 304.988 207.627 304.988H209.736C210.57 304.988 211.24 305.086 211.748 305.281C212.262 305.47 212.653 305.717 212.92 306.023C213.193 306.323 213.379 306.648 213.477 307C213.574 307.352 213.623 307.687 213.623 308.006C213.623 309.041 213.249 309.806 212.5 310.301C211.751 310.796 210.589 311.043 209.014 311.043H208.408ZM208.408 309.734H209.014C210.954 309.734 211.924 309.155 211.924 307.996C211.924 307.514 211.748 307.12 211.396 306.814C211.051 306.508 210.459 306.355 209.619 306.355H207.803C207.152 306.355 206.608 306.489 206.172 306.756C205.736 307.016 205.518 307.446 205.518 308.045C205.518 308.618 205.752 309.041 206.221 309.314C206.696 309.594 207.425 309.734 208.408 309.734ZM208.604 302.41C209.43 302.41 210.065 302.199 210.508 301.775C210.951 301.346 211.172 300.727 211.172 299.92C211.172 299.119 210.951 298.497 210.508 298.055C210.065 297.612 209.43 297.391 208.604 297.391C207.783 297.391 207.155 297.612 206.719 298.055C206.283 298.491 206.064 299.113 206.064 299.92C206.064 300.727 206.283 301.346 206.719 301.775C207.155 302.199 207.783 302.41 208.604 302.41ZM210.342 297.322V296.277C210.342 295.854 210.498 295.506 210.811 295.232C211.123 294.952 211.488 294.812 211.904 294.812H213.174V296.18H212.129C211.927 296.18 211.794 296.215 211.729 296.287C211.67 296.359 211.641 296.502 211.641 296.717V297.322H210.342Z" fill="white" fill-opacity="0.5"/>
<rect x="20.5" y="87.5" width="183" height="59" rx="29.5" stroke="white" stroke-opacity="0.3"/>
<path d="M40.1953 124L46.1328 109.938H47.8906L53.8086 124H51.9336L47.0117 111.773L42.0703 124H40.1953ZM43.2422 119.391V117.945H50.7617V119.391H43.2422ZM58.7891 124.234C58.0534 124.234 57.4154 124.068 56.875 123.736C56.3346 123.404 55.918 122.929 55.625 122.311C55.332 121.692 55.1855 120.953 55.1855 120.094V113.453H56.8262V119.967C56.8262 120.826 56.9889 121.526 57.3145 122.066C57.64 122.6 58.2259 122.867 59.0723 122.867C59.7038 122.867 60.2507 122.704 60.7129 122.379C61.1751 122.053 61.5332 121.565 61.7871 120.914C62.0475 120.263 62.1777 119.449 62.1777 118.473V113.453H63.8184V124H62.2754V121.52L62.3438 121.949C62.0703 122.6 61.6276 123.144 61.0156 123.58C60.4102 124.016 59.668 124.234 58.7891 124.234ZM69.3555 124C68.9388 124 68.5742 123.863 68.2617 123.59C67.9492 123.31 67.793 122.958 67.793 122.535V114.82H66.0938V113.453H67.793V111.246L69.4336 110.895V113.453H71.5234V114.82H69.4336V122.096C69.4336 122.311 69.4629 122.454 69.5215 122.525C69.5866 122.597 69.7201 122.633 69.9219 122.633H71.5332V124H69.3555ZM77.8418 124.234C76.8522 124.234 75.9798 124.003 75.2246 123.541C74.4694 123.072 73.8802 122.424 73.457 121.598C73.0339 120.771 72.8223 119.814 72.8223 118.727C72.8223 117.639 73.0339 116.682 73.457 115.855C73.8802 115.029 74.4694 114.384 75.2246 113.922C75.9798 113.453 76.8522 113.219 77.8418 113.219C78.8314 113.219 79.7038 113.453 80.459 113.922C81.2142 114.384 81.8034 115.029 82.2266 115.855C82.6497 116.682 82.8613 117.639 82.8613 118.727C82.8613 119.814 82.6497 120.771 82.2266 121.598C81.8034 122.424 81.2142 123.072 80.459 123.541C79.7038 124.003 78.8314 124.234 77.8418 124.234ZM77.8418 122.867C78.8379 122.867 79.6224 122.496 80.1953 121.754C80.7747 121.012 81.0645 120.003 81.0645 118.727C81.0645 117.444 80.7747 116.435 80.1953 115.699C79.6224 114.957 78.8379 114.586 77.8418 114.586C76.8457 114.586 76.0579 114.957 75.4785 115.699C74.9056 116.435 74.6191 117.444 74.6191 118.727C74.6191 120.003 74.9056 121.012 75.4785 121.754C76.0579 122.496 76.8457 122.867 77.8418 122.867ZM85.0195 124L85.8008 109.938H88.6914L92.6758 122.73H92.2852L96.2891 109.938H99.1797L99.9609 124H98.2617L97.5781 111.266H97.6074L93.4766 124H91.5234L87.373 111.266H87.4023L86.7188 124H85.0195ZM107.041 124.234C106.038 124.234 105.169 124.01 104.434 123.561C103.704 123.111 103.141 122.477 102.744 121.656C102.347 120.829 102.148 119.856 102.148 118.736C102.148 117.61 102.347 116.633 102.744 115.807C103.141 114.98 103.701 114.342 104.424 113.893C105.146 113.443 105.996 113.219 106.973 113.219C107.533 113.219 108.092 113.31 108.652 113.492C109.219 113.668 109.733 113.977 110.195 114.42C110.664 114.856 111.038 115.458 111.318 116.227C111.605 116.988 111.748 117.952 111.748 119.117H103.203V117.789H110.322L109.854 118.404C109.821 117.48 109.671 116.738 109.404 116.178C109.137 115.618 108.789 115.214 108.359 114.967C107.936 114.713 107.464 114.586 106.943 114.586C106.325 114.586 105.791 114.749 105.342 115.074C104.893 115.393 104.548 115.862 104.307 116.48C104.066 117.099 103.945 117.854 103.945 118.746C103.945 120.061 104.212 121.077 104.746 121.793C105.286 122.509 106.051 122.867 107.041 122.867C107.751 122.867 108.346 122.688 108.828 122.33C109.316 121.972 109.674 121.454 109.902 120.777L111.514 121.324C111.26 121.936 110.921 122.46 110.498 122.896C110.075 123.326 109.57 123.658 108.984 123.893C108.405 124.12 107.757 124.234 107.041 124.234ZM117.832 124.234C117.07 124.234 116.377 124.111 115.752 123.863C115.133 123.609 114.619 123.229 114.209 122.721C113.799 122.206 113.525 121.555 113.389 120.768L115.107 120.436C115.179 121.262 115.459 121.878 115.947 122.281C116.442 122.685 117.061 122.887 117.803 122.887C118.538 122.887 119.124 122.701 119.561 122.33C119.997 121.959 120.215 121.507 120.215 120.973C120.215 120.517 120.059 120.156 119.746 119.889C119.44 119.622 118.994 119.433 118.408 119.322L117.129 119.078C116.784 119.013 116.426 118.922 116.055 118.805C115.684 118.688 115.335 118.525 115.01 118.316C114.691 118.108 114.43 117.835 114.229 117.496C114.033 117.158 113.936 116.731 113.936 116.217C113.936 115.527 114.115 114.964 114.473 114.527C114.837 114.085 115.316 113.756 115.908 113.541C116.507 113.326 117.152 113.219 117.842 113.219C118.597 113.219 119.255 113.336 119.814 113.57C120.374 113.805 120.83 114.14 121.182 114.576C121.533 115.012 121.768 115.54 121.885 116.158L120.078 116.52C120.033 116.122 119.925 115.777 119.756 115.484C119.593 115.191 119.352 114.967 119.033 114.811C118.721 114.648 118.314 114.566 117.812 114.566C117.207 114.566 116.686 114.693 116.25 114.947C115.814 115.201 115.596 115.585 115.596 116.1C115.596 116.386 115.667 116.63 115.811 116.832C115.96 117.034 116.182 117.203 116.475 117.34C116.774 117.47 117.148 117.584 117.598 117.682L118.896 117.955C119.443 118.066 119.948 118.232 120.41 118.453C120.872 118.668 121.243 118.967 121.523 119.352C121.803 119.736 121.943 120.243 121.943 120.875C121.943 121.572 121.768 122.174 121.416 122.682C121.071 123.183 120.589 123.567 119.971 123.834C119.359 124.101 118.646 124.234 117.832 124.234ZM128.203 124.234C127.441 124.234 126.748 124.111 126.123 123.863C125.505 123.609 124.99 123.229 124.58 122.721C124.17 122.206 123.896 121.555 123.76 120.768L125.479 120.436C125.55 121.262 125.83 121.878 126.318 122.281C126.813 122.685 127.432 122.887 128.174 122.887C128.91 122.887 129.495 122.701 129.932 122.33C130.368 121.959 130.586 121.507 130.586 120.973C130.586 120.517 130.43 120.156 130.117 119.889C129.811 119.622 129.365 119.433 128.779 119.322L127.5 119.078C127.155 119.013 126.797 118.922 126.426 118.805C126.055 118.688 125.706 118.525 125.381 118.316C125.062 118.108 124.801 117.835 124.6 117.496C124.404 117.158 124.307 116.731 124.307 116.217C124.307 115.527 124.486 114.964 124.844 114.527C125.208 114.085 125.687 113.756 126.279 113.541C126.878 113.326 127.523 113.219 128.213 113.219C128.968 113.219 129.626 113.336 130.186 113.57C130.745 113.805 131.201 114.14 131.553 114.576C131.904 115.012 132.139 115.54 132.256 116.158L130.449 116.52C130.404 116.122 130.296 115.777 130.127 115.484C129.964 115.191 129.723 114.967 129.404 114.811C129.092 114.648 128.685 114.566 128.184 114.566C127.578 114.566 127.057 114.693 126.621 114.947C126.185 115.201 125.967 115.585 125.967 116.1C125.967 116.386 126.038 116.63 126.182 116.832C126.331 117.034 126.553 117.203 126.846 117.34C127.145 117.47 127.52 117.584 127.969 117.682L129.268 117.955C129.814 118.066 130.319 118.232 130.781 118.453C131.243 118.668 131.615 118.967 131.895 119.352C132.174 119.736 132.314 120.243 132.314 120.875C132.314 121.572 132.139 122.174 131.787 122.682C131.442 123.183 130.96 123.567 130.342 123.834C129.73 124.101 129.017 124.234 128.203 124.234ZM137.91 124.234C137.207 124.234 136.595 124.101 136.074 123.834C135.56 123.561 135.163 123.189 134.883 122.721C134.603 122.252 134.463 121.721 134.463 121.129C134.463 120.497 134.648 119.915 135.02 119.381C135.391 118.847 135.964 118.421 136.738 118.102C137.52 117.776 138.519 117.613 139.736 117.613H141.494L141.318 117.789V117.213C141.318 116.367 141.149 115.719 140.811 115.27C140.472 114.814 139.906 114.586 139.111 114.586C138.363 114.586 137.786 114.781 137.383 115.172C136.979 115.556 136.764 116.074 136.738 116.725L134.893 116.305C134.951 115.738 135.166 115.224 135.537 114.762C135.915 114.293 136.416 113.919 137.041 113.639C137.673 113.359 138.402 113.219 139.229 113.219C140.081 113.219 140.775 113.382 141.309 113.707C141.849 114.026 142.246 114.488 142.5 115.094C142.754 115.699 142.881 116.428 142.881 117.281V122.096C142.881 122.311 142.91 122.454 142.969 122.525C143.034 122.597 143.167 122.633 143.369 122.633H143.965V124H142.92C142.477 124 142.106 123.863 141.807 123.59C141.507 123.31 141.357 122.958 141.357 122.535V121.793H141.602C141.497 122.066 141.348 122.346 141.152 122.633C140.957 122.913 140.71 123.176 140.41 123.424C140.111 123.665 139.753 123.86 139.336 124.01C138.926 124.16 138.451 124.234 137.91 124.234ZM138.281 122.867C138.822 122.867 139.323 122.734 139.785 122.467C140.247 122.2 140.618 121.783 140.898 121.217C141.185 120.644 141.328 119.902 141.328 118.99V118.902H139.678C138.812 118.902 138.128 119.016 137.627 119.244C137.132 119.472 136.781 119.755 136.572 120.094C136.364 120.426 136.26 120.758 136.26 121.09C136.26 121.422 136.335 121.721 136.484 121.988C136.634 122.255 136.859 122.47 137.158 122.633C137.458 122.789 137.832 122.867 138.281 122.867ZM149.932 128.043C148.363 128.043 147.207 127.822 146.465 127.379C145.723 126.943 145.352 126.266 145.352 125.348C145.352 124.827 145.485 124.361 145.752 123.951C146.019 123.541 146.481 123.225 147.139 123.004C146.891 122.854 146.689 122.656 146.533 122.408C146.377 122.161 146.299 121.884 146.299 121.578C146.299 121.214 146.413 120.888 146.641 120.602C146.868 120.309 147.194 120.1 147.617 119.977C147.096 119.671 146.689 119.257 146.396 118.736C146.11 118.209 145.967 117.597 145.967 116.9C145.967 116.145 146.133 115.494 146.465 114.947C146.803 114.394 147.282 113.967 147.9 113.668C148.525 113.368 149.268 113.219 150.127 113.219C150.986 113.219 151.729 113.368 152.354 113.668C152.985 113.967 153.47 114.394 153.809 114.947C154.154 115.501 154.326 116.158 154.326 116.92C154.326 117.669 154.154 118.316 153.809 118.863C153.47 119.404 152.985 119.824 152.354 120.123C151.722 120.416 150.97 120.562 150.098 120.562H149.189C148.369 120.562 147.959 120.807 147.959 121.295C147.959 121.757 148.356 121.988 149.15 121.988H151.26C152.093 121.988 152.764 122.086 153.271 122.281C153.786 122.47 154.176 122.717 154.443 123.023C154.717 123.323 154.902 123.648 155 124C155.098 124.352 155.146 124.687 155.146 125.006C155.146 126.041 154.772 126.806 154.023 127.301C153.275 127.796 152.113 128.043 150.537 128.043H149.932ZM149.932 126.734H150.537C152.477 126.734 153.447 126.155 153.447 124.996C153.447 124.514 153.271 124.12 152.92 123.814C152.575 123.508 151.982 123.355 151.143 123.355H149.326C148.675 123.355 148.132 123.489 147.695 123.756C147.259 124.016 147.041 124.446 147.041 125.045C147.041 125.618 147.275 126.041 147.744 126.314C148.219 126.594 148.949 126.734 149.932 126.734ZM150.127 119.41C150.954 119.41 151.589 119.199 152.031 118.775C152.474 118.346 152.695 117.727 152.695 116.92C152.695 116.119 152.474 115.497 152.031 115.055C151.589 114.612 150.954 114.391 150.127 114.391C149.307 114.391 148.678 114.612 148.242 115.055C147.806 115.491 147.588 116.113 147.588 116.92C147.588 117.727 147.806 118.346 148.242 118.775C148.678 119.199 149.307 119.41 150.127 119.41ZM151.865 114.322V113.277C151.865 112.854 152.021 112.506 152.334 112.232C152.646 111.952 153.011 111.812 153.428 111.812H154.697V113.18H153.652C153.451 113.18 153.317 113.215 153.252 113.287C153.193 113.359 153.164 113.502 153.164 113.717V114.322H151.865ZM157.266 124V113.453H158.906V124H157.266ZM158.086 111.686C157.708 111.686 157.386 111.552 157.119 111.285C156.852 111.018 156.719 110.696 156.719 110.318C156.719 109.934 156.852 109.612 157.119 109.352C157.386 109.085 157.708 108.951 158.086 108.951C158.47 108.951 158.792 109.085 159.053 109.352C159.32 109.612 159.453 109.934 159.453 110.318C159.453 110.696 159.32 111.018 159.053 111.285C158.792 111.552 158.47 111.686 158.086 111.686ZM162.1 124V113.453H163.643V115.836L163.574 115.406C163.854 114.801 164.297 114.286 164.902 113.863C165.508 113.434 166.243 113.219 167.109 113.219C167.858 113.219 168.503 113.385 169.043 113.717C169.583 114.049 170 114.524 170.293 115.143C170.586 115.755 170.732 116.493 170.732 117.359V124H169.092V117.486C169.092 116.62 168.913 115.921 168.555 115.387C168.203 114.853 167.62 114.586 166.807 114.586C165.928 114.586 165.195 114.921 164.609 115.592C164.03 116.256 163.74 117.219 163.74 118.482V124H162.1ZM177.627 128.043C176.058 128.043 174.902 127.822 174.16 127.379C173.418 126.943 173.047 126.266 173.047 125.348C173.047 124.827 173.18 124.361 173.447 123.951C173.714 123.541 174.176 123.225 174.834 123.004C174.587 122.854 174.385 122.656 174.229 122.408C174.072 122.161 173.994 121.884 173.994 121.578C173.994 121.214 174.108 120.888 174.336 120.602C174.564 120.309 174.889 120.1 175.312 119.977C174.792 119.671 174.385 119.257 174.092 118.736C173.805 118.209 173.662 117.597 173.662 116.9C173.662 116.145 173.828 115.494 174.16 114.947C174.499 114.394 174.977 113.967 175.596 113.668C176.221 113.368 176.963 113.219 177.822 113.219C178.682 113.219 179.424 113.368 180.049 113.668C180.68 113.967 181.165 114.394 181.504 114.947C181.849 115.501 182.021 116.158 182.021 116.92C182.021 117.669 181.849 118.316 181.504 118.863C181.165 119.404 180.68 119.824 180.049 120.123C179.417 120.416 178.665 120.562 177.793 120.562H176.885C176.064 120.562 175.654 120.807 175.654 121.295C175.654 121.757 176.051 121.988 176.846 121.988H178.955C179.788 121.988 180.459 122.086 180.967 122.281C181.481 122.47 181.872 122.717 182.139 123.023C182.412 123.323 182.598 123.648 182.695 124C182.793 124.352 182.842 124.687 182.842 125.006C182.842 126.041 182.467 126.806 181.719 127.301C180.97 127.796 179.808 128.043 178.232 128.043H177.627ZM177.627 126.734H178.232C180.173 126.734 181.143 126.155 181.143 124.996C181.143 124.514 180.967 124.12 180.615 123.814C180.27 123.508 179.678 123.355 178.838 123.355H177.021C176.37 123.355 175.827 123.489 175.391 123.756C174.954 124.016 174.736 124.446 174.736 125.045C174.736 125.618 174.971 126.041 175.439 126.314C175.915 126.594 176.644 126.734 177.627 126.734ZM177.822 119.41C178.649 119.41 179.284 119.199 179.727 118.775C180.169 118.346 180.391 117.727 180.391 116.92C180.391 116.119 180.169 115.497 179.727 115.055C179.284 114.612 178.649 114.391 177.822 114.391C177.002 114.391 176.374 114.612 175.938 115.055C175.501 115.491 175.283 116.113 175.283 116.92C175.283 117.727 175.501 118.346 175.938 118.775C176.374 119.199 177.002 119.41 177.822 119.41ZM179.561 114.322V113.277C179.561 112.854 179.717 112.506 180.029 112.232C180.342 111.952 180.706 111.812 181.123 111.812H182.393V113.18H181.348C181.146 113.18 181.012 113.215 180.947 113.287C180.889 113.359 180.859 113.502 180.859 113.717V114.322H179.561Z" fill="white" fill-opacity="0.3"/>
<rect x="339.5" y="285.5" width="215" height="59" rx="29.5" stroke="white" stroke-opacity="0.5"/>
<path d="M365.387 322.234C364.306 322.234 363.362 322.055 362.555 321.697C361.754 321.333 361.106 320.809 360.611 320.125C360.117 319.435 359.788 318.605 359.625 317.635L361.715 317.205C361.76 318.357 362.096 319.243 362.721 319.861C363.346 320.48 364.218 320.789 365.338 320.789C366.015 320.789 366.588 320.678 367.057 320.457C367.532 320.236 367.893 319.923 368.141 319.52C368.395 319.116 368.521 318.641 368.521 318.094C368.521 317.365 368.31 316.824 367.887 316.473C367.47 316.115 366.897 315.854 366.168 315.691L364.332 315.281C363.993 315.203 363.6 315.096 363.15 314.959C362.708 314.822 362.278 314.62 361.861 314.354C361.445 314.087 361.096 313.725 360.816 313.27C360.543 312.814 360.406 312.231 360.406 311.521C360.406 310.617 360.637 309.884 361.1 309.324C361.568 308.764 362.174 308.354 362.916 308.094C363.665 307.833 364.459 307.703 365.299 307.703C366.269 307.703 367.099 307.859 367.789 308.172C368.486 308.478 369.046 308.914 369.469 309.48C369.898 310.047 370.188 310.724 370.338 311.512L368.277 311.941C368.225 311.342 368.079 310.838 367.838 310.428C367.597 310.011 367.258 309.695 366.822 309.48C366.386 309.259 365.842 309.148 365.191 309.148C364.664 309.148 364.169 309.227 363.707 309.383C363.251 309.539 362.88 309.783 362.594 310.115C362.307 310.447 362.164 310.88 362.164 311.414C362.164 311.974 362.356 312.423 362.74 312.762C363.131 313.094 363.779 313.364 364.684 313.572L366.539 314.002C367.197 314.152 367.818 314.376 368.404 314.676C368.99 314.975 369.465 315.395 369.83 315.936C370.195 316.469 370.377 317.176 370.377 318.055C370.377 318.934 370.175 319.686 369.771 320.311C369.374 320.936 368.801 321.414 368.053 321.746C367.311 322.072 366.422 322.234 365.387 322.234ZM376.344 322.234C375.608 322.234 374.97 322.068 374.43 321.736C373.889 321.404 373.473 320.929 373.18 320.311C372.887 319.692 372.74 318.953 372.74 318.094V311.453H374.381V317.967C374.381 318.826 374.544 319.526 374.869 320.066C375.195 320.6 375.781 320.867 376.627 320.867C377.258 320.867 377.805 320.704 378.268 320.379C378.73 320.053 379.088 319.565 379.342 318.914C379.602 318.263 379.732 317.449 379.732 316.473V311.453H381.373V322H379.83V319.52L379.898 319.949C379.625 320.6 379.182 321.144 378.57 321.58C377.965 322.016 377.223 322.234 376.344 322.234ZM389.596 322.234C388.906 322.234 388.222 322.062 387.545 321.717C386.868 321.372 386.357 320.789 386.012 319.969L386.1 319.891V322H384.557V307.352H386.197V313.65L386.051 313.494C386.337 312.726 386.812 312.156 387.477 311.785C388.141 311.408 388.847 311.219 389.596 311.219C390.455 311.219 391.21 311.443 391.861 311.893C392.512 312.342 393.02 312.98 393.385 313.807C393.749 314.633 393.932 315.61 393.932 316.736C393.932 317.863 393.746 318.839 393.375 319.666C393.01 320.486 392.503 321.121 391.852 321.57C391.201 322.013 390.449 322.234 389.596 322.234ZM389.146 320.867C390.019 320.867 390.735 320.509 391.295 319.793C391.855 319.07 392.135 318.038 392.135 316.697C392.135 315.395 391.865 314.386 391.324 313.67C390.784 312.947 390.064 312.586 389.166 312.586C388.619 312.586 388.115 312.729 387.652 313.016C387.197 313.302 386.832 313.748 386.559 314.354C386.285 314.959 386.148 315.74 386.148 316.697C386.148 318.11 386.441 319.158 387.027 319.842C387.613 320.525 388.32 320.867 389.146 320.867ZM400.055 322.234C399.293 322.234 398.6 322.111 397.975 321.863C397.356 321.609 396.842 321.229 396.432 320.721C396.021 320.206 395.748 319.555 395.611 318.768L397.33 318.436C397.402 319.262 397.682 319.878 398.17 320.281C398.665 320.685 399.283 320.887 400.025 320.887C400.761 320.887 401.347 320.701 401.783 320.33C402.219 319.959 402.438 319.507 402.438 318.973C402.438 318.517 402.281 318.156 401.969 317.889C401.663 317.622 401.217 317.433 400.631 317.322L399.352 317.078C399.007 317.013 398.648 316.922 398.277 316.805C397.906 316.688 397.558 316.525 397.232 316.316C396.913 316.108 396.653 315.835 396.451 315.496C396.256 315.158 396.158 314.731 396.158 314.217C396.158 313.527 396.337 312.964 396.695 312.527C397.06 312.085 397.538 311.756 398.131 311.541C398.73 311.326 399.374 311.219 400.064 311.219C400.82 311.219 401.477 311.336 402.037 311.57C402.597 311.805 403.053 312.14 403.404 312.576C403.756 313.012 403.99 313.54 404.107 314.158L402.301 314.52C402.255 314.122 402.148 313.777 401.979 313.484C401.816 313.191 401.575 312.967 401.256 312.811C400.943 312.648 400.536 312.566 400.035 312.566C399.43 312.566 398.909 312.693 398.473 312.947C398.036 313.201 397.818 313.585 397.818 314.1C397.818 314.386 397.89 314.63 398.033 314.832C398.183 315.034 398.404 315.203 398.697 315.34C398.997 315.47 399.371 315.584 399.82 315.682L401.119 315.955C401.666 316.066 402.171 316.232 402.633 316.453C403.095 316.668 403.466 316.967 403.746 317.352C404.026 317.736 404.166 318.243 404.166 318.875C404.166 319.572 403.99 320.174 403.639 320.682C403.294 321.183 402.812 321.567 402.193 321.834C401.581 322.101 400.868 322.234 400.055 322.234ZM411.07 322.234C410.081 322.234 409.225 322.01 408.502 321.561C407.779 321.111 407.223 320.477 406.832 319.656C406.441 318.829 406.246 317.853 406.246 316.727C406.246 315.6 406.441 314.627 406.832 313.807C407.223 312.98 407.779 312.342 408.502 311.893C409.225 311.443 410.081 311.219 411.07 311.219C411.826 311.219 412.499 311.359 413.092 311.639C413.691 311.912 414.195 312.309 414.605 312.83C415.022 313.344 415.328 313.966 415.523 314.695L413.854 315.135C413.671 314.314 413.342 313.686 412.867 313.25C412.398 312.807 411.799 312.586 411.07 312.586C410.1 312.586 409.352 312.947 408.824 313.67C408.303 314.386 408.043 315.405 408.043 316.727C408.043 318.055 408.303 319.077 408.824 319.793C409.352 320.509 410.1 320.867 411.07 320.867C411.793 320.867 412.389 320.656 412.857 320.232C413.326 319.803 413.655 319.184 413.844 318.377L415.504 318.846C415.348 319.38 415.133 319.855 414.859 320.271C414.586 320.688 414.26 321.043 413.883 321.336C413.512 321.629 413.089 321.85 412.613 322C412.145 322.156 411.63 322.234 411.07 322.234ZM417.896 322V311.453H419.439V313.689L419.381 313.436C419.693 312.706 420.162 312.156 420.787 311.785C421.419 311.408 422.057 311.219 422.701 311.219C422.89 311.219 423.072 311.235 423.248 311.268C423.43 311.3 423.6 311.355 423.756 311.434L423.541 312.977C423.183 312.866 422.828 312.811 422.477 312.811C422.255 312.811 421.979 312.856 421.646 312.947C421.321 313.032 420.995 313.208 420.67 313.475C420.351 313.735 420.081 314.126 419.859 314.646C419.645 315.167 419.537 315.861 419.537 316.727V322H417.896ZM425.738 322V311.453H427.379V322H425.738ZM426.559 309.686C426.181 309.686 425.859 309.552 425.592 309.285C425.325 309.018 425.191 308.696 425.191 308.318C425.191 307.934 425.325 307.612 425.592 307.352C425.859 307.085 426.181 306.951 426.559 306.951C426.943 306.951 427.265 307.085 427.525 307.352C427.792 307.612 427.926 307.934 427.926 308.318C427.926 308.696 427.792 309.018 427.525 309.285C427.265 309.552 426.943 309.686 426.559 309.686ZM430.572 325.809V311.453H432.115V313.65L432.066 313.494C432.353 312.726 432.828 312.156 433.492 311.785C434.156 311.408 434.863 311.219 435.611 311.219C436.471 311.219 437.226 311.443 437.877 311.893C438.528 312.342 439.036 312.98 439.4 313.807C439.765 314.633 439.947 315.61 439.947 316.736C439.947 317.863 439.762 318.839 439.391 319.666C439.026 320.486 438.518 321.121 437.867 321.57C437.216 322.013 436.464 322.234 435.611 322.234C434.921 322.234 434.238 322.062 433.561 321.717C432.883 321.372 432.372 320.789 432.027 319.969L432.174 319.891V325.809H430.572ZM435.162 320.867C436.035 320.867 436.751 320.509 437.311 319.793C437.87 319.07 438.15 318.038 438.15 316.697C438.15 315.395 437.88 314.386 437.34 313.67C436.799 312.947 436.08 312.586 435.182 312.586C434.635 312.586 434.13 312.729 433.668 313.016C433.212 313.302 432.848 313.748 432.574 314.354C432.301 314.959 432.164 315.74 432.164 316.697C432.164 318.11 432.457 319.158 433.043 319.842C433.629 320.525 434.335 320.867 435.162 320.867ZM444.586 322C444.169 322 443.805 321.863 443.492 321.59C443.18 321.31 443.023 320.958 443.023 320.535V312.82H441.324V311.453H443.023V309.246L444.664 308.895V311.453H446.754V312.82H444.664V320.096C444.664 320.311 444.693 320.454 444.752 320.525C444.817 320.597 444.951 320.633 445.152 320.633H446.764V322H444.586ZM449.137 322V311.453H450.777V322H449.137ZM449.957 309.686C449.579 309.686 449.257 309.552 448.99 309.285C448.723 309.018 448.59 308.696 448.59 308.318C448.59 307.934 448.723 307.612 448.99 307.352C449.257 307.085 449.579 306.951 449.957 306.951C450.341 306.951 450.663 307.085 450.924 307.352C451.191 307.612 451.324 307.934 451.324 308.318C451.324 308.696 451.191 309.018 450.924 309.285C450.663 309.552 450.341 309.686 449.957 309.686ZM458.248 322.234C457.258 322.234 456.386 322.003 455.631 321.541C454.876 321.072 454.286 320.424 453.863 319.598C453.44 318.771 453.229 317.814 453.229 316.727C453.229 315.639 453.44 314.682 453.863 313.855C454.286 313.029 454.876 312.384 455.631 311.922C456.386 311.453 457.258 311.219 458.248 311.219C459.238 311.219 460.11 311.453 460.865 311.922C461.62 312.384 462.21 313.029 462.633 313.855C463.056 314.682 463.268 315.639 463.268 316.727C463.268 317.814 463.056 318.771 462.633 319.598C462.21 320.424 461.62 321.072 460.865 321.541C460.11 322.003 459.238 322.234 458.248 322.234ZM458.248 320.867C459.244 320.867 460.029 320.496 460.602 319.754C461.181 319.012 461.471 318.003 461.471 316.727C461.471 315.444 461.181 314.435 460.602 313.699C460.029 312.957 459.244 312.586 458.248 312.586C457.252 312.586 456.464 312.957 455.885 313.699C455.312 314.435 455.025 315.444 455.025 316.727C455.025 318.003 455.312 319.012 455.885 319.754C456.464 320.496 457.252 320.867 458.248 320.867ZM465.709 322V311.453H467.252V313.836L467.184 313.406C467.464 312.801 467.906 312.286 468.512 311.863C469.117 311.434 469.853 311.219 470.719 311.219C471.467 311.219 472.112 311.385 472.652 311.717C473.193 312.049 473.609 312.524 473.902 313.143C474.195 313.755 474.342 314.493 474.342 315.359V322H472.701V315.486C472.701 314.62 472.522 313.921 472.164 313.387C471.812 312.853 471.23 312.586 470.416 312.586C469.537 312.586 468.805 312.921 468.219 313.592C467.639 314.256 467.35 315.219 467.35 316.482V322H465.709ZM476.988 322L477.77 307.938H480.66L484.645 320.73H484.254L488.258 307.938H491.148L491.93 322H490.23L489.547 309.266H489.576L485.445 322H483.492L479.342 309.266H479.371L478.688 322H476.988ZM499.107 322.234C498.118 322.234 497.245 322.003 496.49 321.541C495.735 321.072 495.146 320.424 494.723 319.598C494.299 318.771 494.088 317.814 494.088 316.727C494.088 315.639 494.299 314.682 494.723 313.855C495.146 313.029 495.735 312.384 496.49 311.922C497.245 311.453 498.118 311.219 499.107 311.219C500.097 311.219 500.969 311.453 501.725 311.922C502.48 312.384 503.069 313.029 503.492 313.855C503.915 314.682 504.127 315.639 504.127 316.727C504.127 317.814 503.915 318.771 503.492 319.598C503.069 320.424 502.48 321.072 501.725 321.541C500.969 322.003 500.097 322.234 499.107 322.234ZM499.107 320.867C500.104 320.867 500.888 320.496 501.461 319.754C502.04 319.012 502.33 318.003 502.33 316.727C502.33 315.444 502.04 314.435 501.461 313.699C500.888 312.957 500.104 312.586 499.107 312.586C498.111 312.586 497.324 312.957 496.744 313.699C496.171 314.435 495.885 315.444 495.885 316.727C495.885 318.003 496.171 319.012 496.744 319.754C497.324 320.496 498.111 320.867 499.107 320.867ZM510.777 322.234C509.924 322.234 509.169 322.01 508.512 321.561C507.861 321.111 507.353 320.473 506.988 319.646C506.624 318.82 506.441 317.843 506.441 316.717C506.441 315.59 506.624 314.617 506.988 313.797C507.359 312.97 507.87 312.335 508.521 311.893C509.173 311.443 509.924 311.219 510.777 311.219C511.467 311.219 512.151 311.391 512.828 311.736C513.505 312.081 514.016 312.664 514.361 313.484L514.176 313.562V307.352H515.816V322H514.273V319.803L514.322 319.959C514.036 320.727 513.561 321.3 512.896 321.678C512.232 322.049 511.526 322.234 510.777 322.234ZM511.207 320.867C511.76 320.867 512.265 320.724 512.721 320.438C513.176 320.151 513.541 319.705 513.814 319.1C514.088 318.488 514.225 317.706 514.225 316.756C514.225 315.337 513.932 314.288 513.346 313.611C512.76 312.928 512.053 312.586 511.227 312.586C510.354 312.586 509.638 312.947 509.078 313.67C508.518 314.386 508.238 315.415 508.238 316.756C508.238 318.058 508.508 319.07 509.049 319.793C509.589 320.509 510.309 320.867 511.207 320.867ZM523.229 322.234C522.226 322.234 521.357 322.01 520.621 321.561C519.892 321.111 519.329 320.477 518.932 319.656C518.535 318.829 518.336 317.856 518.336 316.736C518.336 315.61 518.535 314.633 518.932 313.807C519.329 312.98 519.889 312.342 520.611 311.893C521.334 311.443 522.184 311.219 523.16 311.219C523.72 311.219 524.28 311.31 524.84 311.492C525.406 311.668 525.921 311.977 526.383 312.42C526.852 312.856 527.226 313.458 527.506 314.227C527.792 314.988 527.936 315.952 527.936 317.117H519.391V315.789H526.51L526.041 316.404C526.008 315.48 525.859 314.738 525.592 314.178C525.325 313.618 524.977 313.214 524.547 312.967C524.124 312.713 523.652 312.586 523.131 312.586C522.512 312.586 521.979 312.749 521.529 313.074C521.08 313.393 520.735 313.862 520.494 314.48C520.253 315.099 520.133 315.854 520.133 316.746C520.133 318.061 520.4 319.077 520.934 319.793C521.474 320.509 522.239 320.867 523.229 320.867C523.938 320.867 524.534 320.688 525.016 320.33C525.504 319.972 525.862 319.454 526.09 318.777L527.701 319.324C527.447 319.936 527.109 320.46 526.686 320.896C526.262 321.326 525.758 321.658 525.172 321.893C524.592 322.12 523.945 322.234 523.229 322.234ZM531.959 322C531.542 322 531.178 321.863 530.865 321.59C530.553 321.31 530.396 320.958 530.396 320.535V307.352H532.037V320.096C532.037 320.311 532.066 320.454 532.125 320.525C532.19 320.597 532.324 320.633 532.525 320.633H533.551V322H531.959Z" fill="white" fill-opacity="0.5"/>
<rect x="75.5" y="172.5" width="123" height="59" rx="29.5" stroke="white"/>
<path d="M96.6016 209V194.938H101.963C103.337 194.938 104.437 195.221 105.264 195.787C106.09 196.347 106.504 197.171 106.504 198.258C106.504 198.922 106.357 199.475 106.064 199.918C105.771 200.354 105.394 200.693 104.932 200.934C104.476 201.168 103.994 201.314 103.486 201.373L103.516 201.334C104.544 201.503 105.387 201.907 106.045 202.545C106.709 203.183 107.041 204.075 107.041 205.221C107.041 206.152 106.823 206.894 106.387 207.447C105.957 208.001 105.384 208.398 104.668 208.639C103.952 208.88 103.167 209 102.314 209H96.6016ZM98.3594 207.555H102.314C103.076 207.555 103.672 207.424 104.102 207.164C104.531 206.897 104.831 206.559 105 206.148C105.176 205.738 105.264 205.312 105.264 204.869C105.264 204.238 105.117 203.717 104.824 203.307C104.531 202.896 104.118 202.59 103.584 202.389C103.05 202.187 102.419 202.086 101.689 202.086H98.3594V207.555ZM98.3594 200.641H101.875C102.643 200.641 103.301 200.478 103.848 200.152C104.395 199.82 104.668 199.267 104.668 198.492C104.668 197.874 104.456 197.369 104.033 196.979C103.617 196.581 102.93 196.383 101.973 196.383H98.3594V200.641ZM113.027 209.234C112.292 209.234 111.654 209.068 111.113 208.736C110.573 208.404 110.156 207.929 109.863 207.311C109.57 206.692 109.424 205.953 109.424 205.094V198.453H111.064V204.967C111.064 205.826 111.227 206.526 111.553 207.066C111.878 207.6 112.464 207.867 113.311 207.867C113.942 207.867 114.489 207.704 114.951 207.379C115.413 207.053 115.771 206.565 116.025 205.914C116.286 205.263 116.416 204.449 116.416 203.473V198.453H118.057V209H116.514V206.52L116.582 206.949C116.309 207.6 115.866 208.144 115.254 208.58C114.648 209.016 113.906 209.234 113.027 209.234ZM122.764 209C122.347 209 121.982 208.863 121.67 208.59C121.357 208.31 121.201 207.958 121.201 207.535V194.352H122.842V207.096C122.842 207.311 122.871 207.454 122.93 207.525C122.995 207.597 123.128 207.633 123.33 207.633H124.355V209H122.764ZM126.523 209V194.352H128.164V203.17L133.115 198.453H135.352L130.996 202.457L135.439 209H133.496L129.805 203.551L128.164 205.064V209H126.523ZM142.168 209.234C141.087 209.234 140.143 209.055 139.336 208.697C138.535 208.333 137.887 207.809 137.393 207.125C136.898 206.435 136.569 205.605 136.406 204.635L138.496 204.205C138.542 205.357 138.877 206.243 139.502 206.861C140.127 207.48 140.999 207.789 142.119 207.789C142.796 207.789 143.369 207.678 143.838 207.457C144.313 207.236 144.674 206.923 144.922 206.52C145.176 206.116 145.303 205.641 145.303 205.094C145.303 204.365 145.091 203.824 144.668 203.473C144.251 203.115 143.678 202.854 142.949 202.691L141.113 202.281C140.775 202.203 140.381 202.096 139.932 201.959C139.489 201.822 139.059 201.62 138.643 201.354C138.226 201.087 137.878 200.725 137.598 200.27C137.324 199.814 137.188 199.231 137.188 198.521C137.188 197.617 137.419 196.884 137.881 196.324C138.35 195.764 138.955 195.354 139.697 195.094C140.446 194.833 141.24 194.703 142.08 194.703C143.05 194.703 143.88 194.859 144.57 195.172C145.267 195.478 145.827 195.914 146.25 196.48C146.68 197.047 146.969 197.724 147.119 198.512L145.059 198.941C145.007 198.342 144.86 197.838 144.619 197.428C144.378 197.011 144.04 196.695 143.604 196.48C143.167 196.259 142.624 196.148 141.973 196.148C141.445 196.148 140.951 196.227 140.488 196.383C140.033 196.539 139.661 196.783 139.375 197.115C139.089 197.447 138.945 197.88 138.945 198.414C138.945 198.974 139.137 199.423 139.521 199.762C139.912 200.094 140.56 200.364 141.465 200.572L143.32 201.002C143.978 201.152 144.6 201.376 145.186 201.676C145.771 201.975 146.247 202.395 146.611 202.936C146.976 203.469 147.158 204.176 147.158 205.055C147.158 205.934 146.956 206.686 146.553 207.311C146.156 207.936 145.583 208.414 144.834 208.746C144.092 209.072 143.203 209.234 142.168 209.234ZM149.492 209L150.273 194.938H153.164L157.148 207.73H156.758L160.762 194.938H163.652L164.434 209H162.734L162.051 196.266H162.08L157.949 209H155.996L151.846 196.266H151.875L151.191 209H149.492ZM172.188 209.234C171.107 209.234 170.163 209.055 169.355 208.697C168.555 208.333 167.907 207.809 167.412 207.125C166.917 206.435 166.589 205.605 166.426 204.635L168.516 204.205C168.561 205.357 168.896 206.243 169.521 206.861C170.146 207.48 171.019 207.789 172.139 207.789C172.816 207.789 173.389 207.678 173.857 207.457C174.333 207.236 174.694 206.923 174.941 206.52C175.195 206.116 175.322 205.641 175.322 205.094C175.322 204.365 175.111 203.824 174.688 203.473C174.271 203.115 173.698 202.854 172.969 202.691L171.133 202.281C170.794 202.203 170.4 202.096 169.951 201.959C169.508 201.822 169.079 201.62 168.662 201.354C168.245 201.087 167.897 200.725 167.617 200.27C167.344 199.814 167.207 199.231 167.207 198.521C167.207 197.617 167.438 196.884 167.9 196.324C168.369 195.764 168.975 195.354 169.717 195.094C170.465 194.833 171.26 194.703 172.1 194.703C173.07 194.703 173.9 194.859 174.59 195.172C175.286 195.478 175.846 195.914 176.27 196.48C176.699 197.047 176.989 197.724 177.139 198.512L175.078 198.941C175.026 198.342 174.88 197.838 174.639 197.428C174.398 197.011 174.059 196.695 173.623 196.48C173.187 196.259 172.643 196.148 171.992 196.148C171.465 196.148 170.97 196.227 170.508 196.383C170.052 196.539 169.681 196.783 169.395 197.115C169.108 197.447 168.965 197.88 168.965 198.414C168.965 198.974 169.157 199.423 169.541 199.762C169.932 200.094 170.579 200.364 171.484 200.572L173.34 201.002C173.997 201.152 174.619 201.376 175.205 201.676C175.791 201.975 176.266 202.395 176.631 202.936C176.995 203.469 177.178 204.176 177.178 205.055C177.178 205.934 176.976 206.686 176.572 207.311C176.175 207.936 175.602 208.414 174.854 208.746C174.111 209.072 173.223 209.234 172.188 209.234Z" fill="white"/>
<rect x="309.5" y="42.5" width="218" height="59" rx="29.5" stroke="white"/>
<path d="M330.211 79L330.992 64.9375H333.883L337.867 77.7305H337.477L341.48 64.9375H344.371L345.152 79H343.453L342.77 66.2656H342.799L338.668 79H336.715L332.564 66.2656H332.594L331.91 79H330.211ZM352.232 79.2344C351.23 79.2344 350.361 79.0098 349.625 78.5605C348.896 78.1113 348.333 77.4766 347.936 76.6562C347.538 75.8294 347.34 74.8561 347.34 73.7363C347.34 72.61 347.538 71.6335 347.936 70.8066C348.333 69.9798 348.893 69.3418 349.615 68.8926C350.338 68.4434 351.188 68.2188 352.164 68.2188C352.724 68.2188 353.284 68.3099 353.844 68.4922C354.41 68.668 354.924 68.9772 355.387 69.4199C355.855 69.8561 356.23 70.4583 356.51 71.2266C356.796 71.9883 356.939 72.9518 356.939 74.1172H348.395V72.7891H355.514L355.045 73.4043C355.012 72.4798 354.863 71.7376 354.596 71.1777C354.329 70.6178 353.98 70.2142 353.551 69.9668C353.128 69.7129 352.656 69.5859 352.135 69.5859C351.516 69.5859 350.982 69.7487 350.533 70.0742C350.084 70.3932 349.739 70.862 349.498 71.4805C349.257 72.099 349.137 72.8542 349.137 73.7461C349.137 75.0612 349.404 76.0768 349.938 76.793C350.478 77.5091 351.243 77.8672 352.232 77.8672C352.942 77.8672 353.538 77.6882 354.02 77.3301C354.508 76.972 354.866 76.4544 355.094 75.7773L356.705 76.3242C356.451 76.9362 356.113 77.4603 355.689 77.8965C355.266 78.3262 354.762 78.6582 354.176 78.8926C353.596 79.1204 352.949 79.2344 352.232 79.2344ZM363.023 79.2344C362.262 79.2344 361.568 79.1107 360.943 78.8633C360.325 78.6094 359.811 78.2285 359.4 77.7207C358.99 77.2064 358.717 76.5553 358.58 75.7676L360.299 75.4355C360.37 76.2624 360.65 76.8776 361.139 77.2812C361.633 77.6849 362.252 77.8867 362.994 77.8867C363.73 77.8867 364.316 77.7012 364.752 77.3301C365.188 76.959 365.406 76.5065 365.406 75.9727C365.406 75.5169 365.25 75.1556 364.938 74.8887C364.632 74.6217 364.186 74.4329 363.6 74.3223L362.32 74.0781C361.975 74.013 361.617 73.9219 361.246 73.8047C360.875 73.6875 360.527 73.5247 360.201 73.3164C359.882 73.1081 359.622 72.8346 359.42 72.4961C359.225 72.1576 359.127 71.7311 359.127 71.2168C359.127 70.5267 359.306 69.9635 359.664 69.5273C360.029 69.0846 360.507 68.7559 361.1 68.541C361.699 68.3262 362.343 68.2188 363.033 68.2188C363.788 68.2188 364.446 68.3359 365.006 68.5703C365.566 68.8047 366.021 69.14 366.373 69.5762C366.725 70.0124 366.959 70.5397 367.076 71.1582L365.27 71.5195C365.224 71.1224 365.117 70.7773 364.947 70.4844C364.785 70.1914 364.544 69.9668 364.225 69.8105C363.912 69.6478 363.505 69.5664 363.004 69.5664C362.398 69.5664 361.878 69.6934 361.441 69.9473C361.005 70.2012 360.787 70.5853 360.787 71.0996C360.787 71.3861 360.859 71.6302 361.002 71.832C361.152 72.0339 361.373 72.2031 361.666 72.3398C361.965 72.4701 362.34 72.584 362.789 72.6816L364.088 72.9551C364.635 73.0658 365.139 73.2318 365.602 73.4531C366.064 73.668 366.435 73.9674 366.715 74.3516C366.995 74.7357 367.135 75.2435 367.135 75.875C367.135 76.5716 366.959 77.1738 366.607 77.6816C366.262 78.1829 365.781 78.5671 365.162 78.834C364.55 79.1009 363.837 79.2344 363.023 79.2344ZM373.395 79.2344C372.633 79.2344 371.939 79.1107 371.314 78.8633C370.696 78.6094 370.182 78.2285 369.771 77.7207C369.361 77.2064 369.088 76.5553 368.951 75.7676L370.67 75.4355C370.742 76.2624 371.021 76.8776 371.51 77.2812C372.005 77.6849 372.623 77.8867 373.365 77.8867C374.101 77.8867 374.687 77.7012 375.123 77.3301C375.559 76.959 375.777 76.5065 375.777 75.9727C375.777 75.5169 375.621 75.1556 375.309 74.8887C375.003 74.6217 374.557 74.4329 373.971 74.3223L372.691 74.0781C372.346 74.013 371.988 73.9219 371.617 73.8047C371.246 73.6875 370.898 73.5247 370.572 73.3164C370.253 73.1081 369.993 72.8346 369.791 72.4961C369.596 72.1576 369.498 71.7311 369.498 71.2168C369.498 70.5267 369.677 69.9635 370.035 69.5273C370.4 69.0846 370.878 68.7559 371.471 68.541C372.07 68.3262 372.714 68.2188 373.404 68.2188C374.16 68.2188 374.817 68.3359 375.377 68.5703C375.937 68.8047 376.393 69.14 376.744 69.5762C377.096 70.0124 377.33 70.5397 377.447 71.1582L375.641 71.5195C375.595 71.1224 375.488 70.7773 375.318 70.4844C375.156 70.1914 374.915 69.9668 374.596 69.8105C374.283 69.6478 373.876 69.5664 373.375 69.5664C372.77 69.5664 372.249 69.6934 371.812 69.9473C371.376 70.2012 371.158 70.5853 371.158 71.0996C371.158 71.3861 371.23 71.6302 371.373 71.832C371.523 72.0339 371.744 72.2031 372.037 72.3398C372.337 72.4701 372.711 72.584 373.16 72.6816L374.459 72.9551C375.006 73.0658 375.51 73.2318 375.973 73.4531C376.435 73.668 376.806 73.9674 377.086 74.3516C377.366 74.7357 377.506 75.2435 377.506 75.875C377.506 76.5716 377.33 77.1738 376.979 77.6816C376.633 78.1829 376.152 78.5671 375.533 78.834C374.921 79.1009 374.208 79.2344 373.395 79.2344ZM383.102 79.2344C382.398 79.2344 381.786 79.1009 381.266 78.834C380.751 78.5605 380.354 78.1895 380.074 77.7207C379.794 77.252 379.654 76.7214 379.654 76.1289C379.654 75.4974 379.84 74.9147 380.211 74.3809C380.582 73.847 381.155 73.4206 381.93 73.1016C382.711 72.776 383.71 72.6133 384.928 72.6133H386.686L386.51 72.7891V72.2129C386.51 71.3665 386.34 70.7188 386.002 70.2695C385.663 69.8138 385.097 69.5859 384.303 69.5859C383.554 69.5859 382.978 69.7812 382.574 70.1719C382.171 70.556 381.956 71.0736 381.93 71.7246L380.084 71.3047C380.143 70.7383 380.357 70.224 380.729 69.7617C381.106 69.293 381.607 68.9186 382.232 68.6387C382.864 68.3587 383.593 68.2188 384.42 68.2188C385.273 68.2188 385.966 68.3815 386.5 68.707C387.04 69.026 387.438 69.4883 387.691 70.0938C387.945 70.6992 388.072 71.4284 388.072 72.2812V77.0957C388.072 77.3105 388.102 77.4538 388.16 77.5254C388.225 77.597 388.359 77.6328 388.561 77.6328H389.156V79H388.111C387.669 79 387.298 78.8633 386.998 78.5898C386.699 78.3099 386.549 77.9583 386.549 77.5352V76.793H386.793C386.689 77.0664 386.539 77.3464 386.344 77.6328C386.148 77.9128 385.901 78.1764 385.602 78.4238C385.302 78.6647 384.944 78.86 384.527 79.0098C384.117 79.1595 383.642 79.2344 383.102 79.2344ZM383.473 77.8672C384.013 77.8672 384.514 77.7337 384.977 77.4668C385.439 77.1999 385.81 76.7832 386.09 76.2168C386.376 75.6439 386.52 74.9017 386.52 73.9902V73.9023H384.869C384.003 73.9023 383.32 74.0163 382.818 74.2441C382.324 74.472 381.972 74.7552 381.764 75.0938C381.555 75.4258 381.451 75.7578 381.451 76.0898C381.451 76.4219 381.526 76.7214 381.676 76.9883C381.826 77.2552 382.05 77.4701 382.35 77.6328C382.649 77.7891 383.023 77.8672 383.473 77.8672ZM395.123 83.043C393.554 83.043 392.398 82.8216 391.656 82.3789C390.914 81.9427 390.543 81.2656 390.543 80.3477C390.543 79.8268 390.676 79.3613 390.943 78.9512C391.21 78.541 391.673 78.2253 392.33 78.0039C392.083 77.8542 391.881 77.6556 391.725 77.4082C391.568 77.1608 391.49 76.8841 391.49 76.5781C391.49 76.2135 391.604 75.888 391.832 75.6016C392.06 75.3086 392.385 75.1003 392.809 74.9766C392.288 74.6706 391.881 74.2572 391.588 73.7363C391.301 73.209 391.158 72.597 391.158 71.9004C391.158 71.1452 391.324 70.4941 391.656 69.9473C391.995 69.3939 392.473 68.9674 393.092 68.668C393.717 68.3685 394.459 68.2188 395.318 68.2188C396.178 68.2188 396.92 68.3685 397.545 68.668C398.176 68.9674 398.661 69.3939 399 69.9473C399.345 70.5007 399.518 71.1582 399.518 71.9199C399.518 72.6686 399.345 73.3164 399 73.8633C398.661 74.4036 398.176 74.8236 397.545 75.123C396.913 75.416 396.161 75.5625 395.289 75.5625H394.381C393.561 75.5625 393.15 75.8066 393.15 76.2949C393.15 76.7572 393.548 76.9883 394.342 76.9883H396.451C397.285 76.9883 397.955 77.0859 398.463 77.2812C398.977 77.4701 399.368 77.7174 399.635 78.0234C399.908 78.3229 400.094 78.6484 400.191 79C400.289 79.3516 400.338 79.6868 400.338 80.0059C400.338 81.041 399.964 81.806 399.215 82.3008C398.466 82.7956 397.304 83.043 395.729 83.043H395.123ZM395.123 81.7344H395.729C397.669 81.7344 398.639 81.1549 398.639 79.9961C398.639 79.5143 398.463 79.1204 398.111 78.8145C397.766 78.5085 397.174 78.3555 396.334 78.3555H394.518C393.867 78.3555 393.323 78.4889 392.887 78.7559C392.451 79.0163 392.232 79.446 392.232 80.0449C392.232 80.6178 392.467 81.041 392.936 81.3145C393.411 81.5944 394.14 81.7344 395.123 81.7344ZM395.318 74.4102C396.145 74.4102 396.78 74.1986 397.223 73.7754C397.665 73.3457 397.887 72.7272 397.887 71.9199C397.887 71.1191 397.665 70.4974 397.223 70.0547C396.78 69.612 396.145 69.3906 395.318 69.3906C394.498 69.3906 393.87 69.612 393.434 70.0547C392.997 70.4909 392.779 71.1126 392.779 71.9199C392.779 72.7272 392.997 73.3457 393.434 73.7754C393.87 74.1986 394.498 74.4102 395.318 74.4102ZM397.057 69.3223V68.2773C397.057 67.8542 397.213 67.5059 397.525 67.2324C397.838 66.9525 398.202 66.8125 398.619 66.8125H399.889V68.1797H398.844C398.642 68.1797 398.508 68.2155 398.443 68.2871C398.385 68.3587 398.355 68.502 398.355 68.7168V69.3223H397.057ZM406.744 79.2344C405.742 79.2344 404.872 79.0098 404.137 78.5605C403.408 78.1113 402.844 77.4766 402.447 76.6562C402.05 75.8294 401.852 74.8561 401.852 73.7363C401.852 72.61 402.05 71.6335 402.447 70.8066C402.844 69.9798 403.404 69.3418 404.127 68.8926C404.85 68.4434 405.699 68.2188 406.676 68.2188C407.236 68.2188 407.796 68.3099 408.355 68.4922C408.922 68.668 409.436 68.9772 409.898 69.4199C410.367 69.8561 410.742 70.4583 411.021 71.2266C411.308 71.9883 411.451 72.9518 411.451 74.1172H402.906V72.7891H410.025L409.557 73.4043C409.524 72.4798 409.374 71.7376 409.107 71.1777C408.84 70.6178 408.492 70.2142 408.062 69.9668C407.639 69.7129 407.167 69.5859 406.646 69.5859C406.028 69.5859 405.494 69.7487 405.045 70.0742C404.596 70.3932 404.251 70.862 404.01 71.4805C403.769 72.099 403.648 72.8542 403.648 73.7461C403.648 75.0612 403.915 76.0768 404.449 76.793C404.99 77.5091 405.755 77.8672 406.744 77.8672C407.454 77.8672 408.049 77.6882 408.531 77.3301C409.02 76.972 409.378 76.4544 409.605 75.7773L411.217 76.3242C410.963 76.9362 410.624 77.4603 410.201 77.8965C409.778 78.3262 409.273 78.6582 408.688 78.8926C408.108 79.1204 407.46 79.2344 406.744 79.2344ZM418.727 79.2344C417.646 79.2344 416.702 79.0553 415.895 78.6973C415.094 78.3327 414.446 77.8086 413.951 77.125C413.456 76.4349 413.128 75.6048 412.965 74.6348L415.055 74.2051C415.1 75.3574 415.436 76.2428 416.061 76.8613C416.686 77.4798 417.558 77.7891 418.678 77.7891C419.355 77.7891 419.928 77.6784 420.396 77.457C420.872 77.2357 421.233 76.9232 421.48 76.5195C421.734 76.1159 421.861 75.6406 421.861 75.0938C421.861 74.3646 421.65 73.8242 421.227 73.4727C420.81 73.1146 420.237 72.8542 419.508 72.6914L417.672 72.2812C417.333 72.2031 416.939 72.0957 416.49 71.959C416.048 71.8223 415.618 71.6204 415.201 71.3535C414.785 71.0866 414.436 70.7253 414.156 70.2695C413.883 69.8138 413.746 69.2311 413.746 68.5215C413.746 67.6165 413.977 66.8841 414.439 66.3242C414.908 65.7643 415.514 65.3542 416.256 65.0938C417.005 64.8333 417.799 64.7031 418.639 64.7031C419.609 64.7031 420.439 64.8594 421.129 65.1719C421.826 65.4779 422.385 65.9141 422.809 66.4805C423.238 67.0469 423.528 67.724 423.678 68.5117L421.617 68.9414C421.565 68.3424 421.419 67.8379 421.178 67.4277C420.937 67.0111 420.598 66.6953 420.162 66.4805C419.726 66.2591 419.182 66.1484 418.531 66.1484C418.004 66.1484 417.509 66.2266 417.047 66.3828C416.591 66.5391 416.22 66.7832 415.934 67.1152C415.647 67.4473 415.504 67.8802 415.504 68.4141C415.504 68.974 415.696 69.4232 416.08 69.7617C416.471 70.0938 417.118 70.3639 418.023 70.5723L419.879 71.002C420.536 71.1517 421.158 71.3763 421.744 71.6758C422.33 71.9753 422.805 72.3952 423.17 72.9355C423.535 73.4694 423.717 74.1758 423.717 75.0547C423.717 75.9336 423.515 76.6855 423.111 77.3105C422.714 77.9355 422.141 78.4141 421.393 78.7461C420.65 79.0716 419.762 79.2344 418.727 79.2344ZM430.758 79.2344C429.768 79.2344 428.912 79.0098 428.189 78.5605C427.467 78.1113 426.91 77.4766 426.52 76.6562C426.129 75.8294 425.934 74.8529 425.934 73.7266C425.934 72.6003 426.129 71.627 426.52 70.8066C426.91 69.9798 427.467 69.3418 428.189 68.8926C428.912 68.4434 429.768 68.2188 430.758 68.2188C431.513 68.2188 432.187 68.3587 432.779 68.6387C433.378 68.9121 433.883 69.3092 434.293 69.8301C434.71 70.3444 435.016 70.9661 435.211 71.6953L433.541 72.1348C433.359 71.3145 433.03 70.6862 432.555 70.25C432.086 69.8073 431.487 69.5859 430.758 69.5859C429.788 69.5859 429.039 69.9473 428.512 70.6699C427.991 71.3861 427.73 72.4049 427.73 73.7266C427.73 75.0547 427.991 76.0768 428.512 76.793C429.039 77.5091 429.788 77.8672 430.758 77.8672C431.48 77.8672 432.076 77.6556 432.545 77.2324C433.014 76.8027 433.342 76.1842 433.531 75.377L435.191 75.8457C435.035 76.3796 434.82 76.8548 434.547 77.2715C434.273 77.6882 433.948 78.043 433.57 78.3359C433.199 78.6289 432.776 78.8503 432.301 79C431.832 79.1562 431.318 79.2344 430.758 79.2344ZM437.594 79V64.3516H439.234V70.9336L439.068 70.5039C439.342 69.8464 439.781 69.3027 440.387 68.873C440.999 68.4368 441.744 68.2188 442.623 68.2188C443.365 68.2188 444.003 68.3848 444.537 68.7168C445.077 69.0488 445.494 69.5241 445.787 70.1426C446.08 70.7546 446.227 71.4935 446.227 72.3594V79H444.586V72.4863C444.586 71.5944 444.417 70.888 444.078 70.3672C443.746 69.8464 443.154 69.5859 442.301 69.5859C441.389 69.5859 440.65 69.9115 440.084 70.5625C439.518 71.207 439.234 72.1803 439.234 73.4824V79H437.594ZM453.482 79.2344C452.48 79.2344 451.611 79.0098 450.875 78.5605C450.146 78.1113 449.583 77.4766 449.186 76.6562C448.788 75.8294 448.59 74.8561 448.59 73.7363C448.59 72.61 448.788 71.6335 449.186 70.8066C449.583 69.9798 450.143 69.3418 450.865 68.8926C451.588 68.4434 452.438 68.2188 453.414 68.2188C453.974 68.2188 454.534 68.3099 455.094 68.4922C455.66 68.668 456.174 68.9772 456.637 69.4199C457.105 69.8561 457.48 70.4583 457.76 71.2266C458.046 71.9883 458.189 72.9518 458.189 74.1172H449.645V72.7891H456.764L456.295 73.4043C456.262 72.4798 456.113 71.7376 455.846 71.1777C455.579 70.6178 455.23 70.2142 454.801 69.9668C454.378 69.7129 453.906 69.5859 453.385 69.5859C452.766 69.5859 452.232 69.7487 451.783 70.0742C451.334 70.3932 450.989 70.862 450.748 71.4805C450.507 72.099 450.387 72.8542 450.387 73.7461C450.387 75.0612 450.654 76.0768 451.188 76.793C451.728 77.5091 452.493 77.8672 453.482 77.8672C454.192 77.8672 454.788 77.6882 455.27 77.3301C455.758 76.972 456.116 76.4544 456.344 75.7773L457.955 76.3242C457.701 76.9362 457.363 77.4603 456.939 77.8965C456.516 78.3262 456.012 78.6582 455.426 78.8926C454.846 79.1204 454.199 79.2344 453.482 79.2344ZM464.684 79.2344C463.831 79.2344 463.076 79.0098 462.418 78.5605C461.767 78.1113 461.259 77.4733 460.895 76.6465C460.53 75.8197 460.348 74.8431 460.348 73.7168C460.348 72.5905 460.53 71.6172 460.895 70.7969C461.266 69.9701 461.777 69.3353 462.428 68.8926C463.079 68.4434 463.831 68.2188 464.684 68.2188C465.374 68.2188 466.057 68.3913 466.734 68.7363C467.411 69.0814 467.923 69.6641 468.268 70.4844L468.082 70.5625V64.3516H469.723V79H468.18V76.8027L468.229 76.959C467.942 77.7272 467.467 78.3001 466.803 78.6777C466.139 79.0488 465.432 79.2344 464.684 79.2344ZM465.113 77.8672C465.667 77.8672 466.171 77.724 466.627 77.4375C467.083 77.151 467.447 76.7051 467.721 76.0996C467.994 75.4876 468.131 74.7064 468.131 73.7559C468.131 72.3366 467.838 71.2884 467.252 70.6113C466.666 69.9277 465.96 69.5859 465.133 69.5859C464.26 69.5859 463.544 69.9473 462.984 70.6699C462.424 71.3861 462.145 72.4147 462.145 73.7559C462.145 75.0579 462.415 76.0703 462.955 76.793C463.495 77.5091 464.215 77.8672 465.113 77.8672ZM476.324 79.2344C475.589 79.2344 474.951 79.0684 474.41 78.7363C473.87 78.4043 473.453 77.929 473.16 77.3105C472.867 76.6921 472.721 75.9531 472.721 75.0938V68.4531H474.361V74.9668C474.361 75.8262 474.524 76.526 474.85 77.0664C475.175 77.6003 475.761 77.8672 476.607 77.8672C477.239 77.8672 477.786 77.7044 478.248 77.3789C478.71 77.0534 479.068 76.5651 479.322 75.9141C479.583 75.263 479.713 74.4492 479.713 73.4727V68.4531H481.354V79H479.811V76.5195L479.879 76.9492C479.605 77.6003 479.163 78.1439 478.551 78.5801C477.945 79.0163 477.203 79.2344 476.324 79.2344ZM486.061 79C485.644 79 485.279 78.8633 484.967 78.5898C484.654 78.3099 484.498 77.9583 484.498 77.5352V64.3516H486.139V77.0957C486.139 77.3105 486.168 77.4538 486.227 77.5254C486.292 77.597 486.425 77.6328 486.627 77.6328H487.652V79H486.061ZM493.971 79.2344C492.968 79.2344 492.099 79.0098 491.363 78.5605C490.634 78.1113 490.071 77.4766 489.674 76.6562C489.277 75.8294 489.078 74.8561 489.078 73.7363C489.078 72.61 489.277 71.6335 489.674 70.8066C490.071 69.9798 490.631 69.3418 491.354 68.8926C492.076 68.4434 492.926 68.2188 493.902 68.2188C494.462 68.2188 495.022 68.3099 495.582 68.4922C496.148 68.668 496.663 68.9772 497.125 69.4199C497.594 69.8561 497.968 70.4583 498.248 71.2266C498.535 71.9883 498.678 72.9518 498.678 74.1172H490.133V72.7891H497.252L496.783 73.4043C496.751 72.4798 496.601 71.7376 496.334 71.1777C496.067 70.6178 495.719 70.2142 495.289 69.9668C494.866 69.7129 494.394 69.5859 493.873 69.5859C493.255 69.5859 492.721 69.7487 492.271 70.0742C491.822 70.3932 491.477 70.862 491.236 71.4805C490.995 72.099 490.875 72.8542 490.875 73.7461C490.875 75.0612 491.142 76.0768 491.676 76.793C492.216 77.5091 492.981 77.8672 493.971 77.8672C494.68 77.8672 495.276 77.6882 495.758 77.3301C496.246 76.972 496.604 76.4544 496.832 75.7773L498.443 76.3242C498.189 76.9362 497.851 77.4603 497.428 77.8965C497.005 78.3262 496.5 78.6582 495.914 78.8926C495.335 79.1204 494.687 79.2344 493.971 79.2344ZM501.158 79V68.4531H502.701V70.6895L502.643 70.4355C502.955 69.7064 503.424 69.1562 504.049 68.7852C504.68 68.4076 505.318 68.2188 505.963 68.2188C506.152 68.2188 506.334 68.235 506.51 68.2676C506.692 68.3001 506.861 68.3555 507.018 68.4336L506.803 69.9766C506.445 69.8659 506.09 69.8105 505.738 69.8105C505.517 69.8105 505.24 69.8561 504.908 69.9473C504.583 70.0319 504.257 70.2077 503.932 70.4746C503.613 70.735 503.342 71.1257 503.121 71.6465C502.906 72.1673 502.799 72.8607 502.799 73.7266V79H501.158Z" fill="white"/>
<rect x="259" y="202" width="159" height="58" rx="29" stroke="url(#paint0_linear_11_731)" stroke-width="2"/>
<path d="M279.592 241.809V227.453H281.135V229.65L281.086 229.494C281.372 228.726 281.848 228.156 282.512 227.785C283.176 227.408 283.882 227.219 284.631 227.219C285.49 227.219 286.245 227.443 286.896 227.893C287.548 228.342 288.055 228.98 288.42 229.807C288.785 230.633 288.967 231.61 288.967 232.736C288.967 233.863 288.781 234.839 288.41 235.666C288.046 236.486 287.538 237.121 286.887 237.57C286.236 238.013 285.484 238.234 284.631 238.234C283.941 238.234 283.257 238.062 282.58 237.717C281.903 237.372 281.392 236.789 281.047 235.969L281.193 235.891V241.809H279.592ZM284.182 236.867C285.054 236.867 285.77 236.509 286.33 235.793C286.89 235.07 287.17 234.038 287.17 232.697C287.17 231.395 286.9 230.386 286.359 229.67C285.819 228.947 285.1 228.586 284.201 228.586C283.654 228.586 283.15 228.729 282.688 229.016C282.232 229.302 281.867 229.748 281.594 230.354C281.32 230.959 281.184 231.74 281.184 232.697C281.184 234.11 281.477 235.158 282.062 235.842C282.648 236.525 283.355 236.867 284.182 236.867ZM296.193 238.234C295.191 238.234 294.322 238.01 293.586 237.561C292.857 237.111 292.294 236.477 291.896 235.656C291.499 234.829 291.301 233.856 291.301 232.736C291.301 231.61 291.499 230.633 291.896 229.807C292.294 228.98 292.854 228.342 293.576 227.893C294.299 227.443 295.148 227.219 296.125 227.219C296.685 227.219 297.245 227.31 297.805 227.492C298.371 227.668 298.885 227.977 299.348 228.42C299.816 228.856 300.191 229.458 300.471 230.227C300.757 230.988 300.9 231.952 300.9 233.117H292.355V231.789H299.475L299.006 232.404C298.973 231.48 298.824 230.738 298.557 230.178C298.29 229.618 297.941 229.214 297.512 228.967C297.089 228.713 296.617 228.586 296.096 228.586C295.477 228.586 294.943 228.749 294.494 229.074C294.045 229.393 293.7 229.862 293.459 230.48C293.218 231.099 293.098 231.854 293.098 232.746C293.098 234.061 293.365 235.077 293.898 235.793C294.439 236.509 295.204 236.867 296.193 236.867C296.903 236.867 297.499 236.688 297.98 236.33C298.469 235.972 298.827 235.454 299.055 234.777L300.666 235.324C300.412 235.936 300.074 236.46 299.65 236.896C299.227 237.326 298.723 237.658 298.137 237.893C297.557 238.12 296.91 238.234 296.193 238.234ZM303.381 238V227.453H304.924V229.689L304.865 229.436C305.178 228.706 305.646 228.156 306.271 227.785C306.903 227.408 307.541 227.219 308.186 227.219C308.374 227.219 308.557 227.235 308.732 227.268C308.915 227.3 309.084 227.355 309.24 227.434L309.025 228.977C308.667 228.866 308.312 228.811 307.961 228.811C307.74 228.811 307.463 228.856 307.131 228.947C306.805 229.032 306.48 229.208 306.154 229.475C305.835 229.735 305.565 230.126 305.344 230.646C305.129 231.167 305.021 231.861 305.021 232.727V238H303.381ZM312.023 238V225.539C312.023 224.751 312.209 224.191 312.58 223.859C312.951 223.521 313.573 223.352 314.445 223.352H315.764V224.719H314.211C314.016 224.719 313.876 224.761 313.791 224.846C313.706 224.93 313.664 225.07 313.664 225.266V238H312.023ZM310.451 228.82V227.453H316.027V228.82H310.451ZM322.072 238.234C321.083 238.234 320.21 238.003 319.455 237.541C318.7 237.072 318.111 236.424 317.688 235.598C317.264 234.771 317.053 233.814 317.053 232.727C317.053 231.639 317.264 230.682 317.688 229.855C318.111 229.029 318.7 228.384 319.455 227.922C320.21 227.453 321.083 227.219 322.072 227.219C323.062 227.219 323.934 227.453 324.689 227.922C325.445 228.384 326.034 229.029 326.457 229.855C326.88 230.682 327.092 231.639 327.092 232.727C327.092 233.814 326.88 234.771 326.457 235.598C326.034 236.424 325.445 237.072 324.689 237.541C323.934 238.003 323.062 238.234 322.072 238.234ZM322.072 236.867C323.068 236.867 323.853 236.496 324.426 235.754C325.005 235.012 325.295 234.003 325.295 232.727C325.295 231.444 325.005 230.435 324.426 229.699C323.853 228.957 323.068 228.586 322.072 228.586C321.076 228.586 320.288 228.957 319.709 229.699C319.136 230.435 318.85 231.444 318.85 232.727C318.85 234.003 319.136 235.012 319.709 235.754C320.288 236.496 321.076 236.867 322.072 236.867ZM329.533 238V227.453H331.076V229.689L331.018 229.436C331.33 228.706 331.799 228.156 332.424 227.785C333.055 227.408 333.693 227.219 334.338 227.219C334.527 227.219 334.709 227.235 334.885 227.268C335.067 227.3 335.236 227.355 335.393 227.434L335.178 228.977C334.82 228.866 334.465 228.811 334.113 228.811C333.892 228.811 333.615 228.856 333.283 228.947C332.958 229.032 332.632 229.208 332.307 229.475C331.988 229.735 331.717 230.126 331.496 230.646C331.281 231.167 331.174 231.861 331.174 232.727V238H329.533ZM337.072 238V227.453H338.615V229.26C338.863 228.713 339.273 228.238 339.846 227.834C340.419 227.424 341.099 227.219 341.887 227.219C342.583 227.219 343.189 227.411 343.703 227.795C344.224 228.173 344.611 228.71 344.865 229.406C345.197 228.762 345.65 228.238 346.223 227.834C346.802 227.424 347.476 227.219 348.244 227.219C349.253 227.219 350.051 227.587 350.637 228.322C351.229 229.051 351.525 230.064 351.525 231.359V238H349.885V231.486C349.885 230.887 349.823 230.373 349.699 229.943C349.576 229.507 349.37 229.172 349.084 228.938C348.804 228.703 348.42 228.586 347.932 228.586C347.398 228.586 346.916 228.739 346.486 229.045C346.063 229.344 345.728 229.784 345.48 230.363C345.24 230.943 345.119 231.649 345.119 232.482V238H343.479V231.486C343.479 230.887 343.417 230.373 343.293 229.943C343.169 229.507 342.967 229.172 342.688 228.938C342.408 228.703 342.027 228.586 341.545 228.586C341.011 228.586 340.529 228.736 340.1 229.035C339.67 229.335 339.331 229.774 339.084 230.354C338.837 230.933 338.713 231.643 338.713 232.482V238H337.072ZM357.297 238.234C356.594 238.234 355.982 238.101 355.461 237.834C354.947 237.561 354.549 237.189 354.27 236.721C353.99 236.252 353.85 235.721 353.85 235.129C353.85 234.497 354.035 233.915 354.406 233.381C354.777 232.847 355.35 232.421 356.125 232.102C356.906 231.776 357.906 231.613 359.123 231.613H360.881L360.705 231.789V231.213C360.705 230.367 360.536 229.719 360.197 229.27C359.859 228.814 359.292 228.586 358.498 228.586C357.749 228.586 357.173 228.781 356.77 229.172C356.366 229.556 356.151 230.074 356.125 230.725L354.279 230.305C354.338 229.738 354.553 229.224 354.924 228.762C355.301 228.293 355.803 227.919 356.428 227.639C357.059 227.359 357.788 227.219 358.615 227.219C359.468 227.219 360.161 227.382 360.695 227.707C361.236 228.026 361.633 228.488 361.887 229.094C362.141 229.699 362.268 230.428 362.268 231.281V236.096C362.268 236.311 362.297 236.454 362.355 236.525C362.421 236.597 362.554 236.633 362.756 236.633H363.352V238H362.307C361.864 238 361.493 237.863 361.193 237.59C360.894 237.31 360.744 236.958 360.744 236.535V235.793H360.988C360.884 236.066 360.734 236.346 360.539 236.633C360.344 236.913 360.096 237.176 359.797 237.424C359.497 237.665 359.139 237.86 358.723 238.01C358.312 238.16 357.837 238.234 357.297 238.234ZM357.668 236.867C358.208 236.867 358.71 236.734 359.172 236.467C359.634 236.2 360.005 235.783 360.285 235.217C360.572 234.644 360.715 233.902 360.715 232.99V232.902H359.064C358.199 232.902 357.515 233.016 357.014 233.244C356.519 233.472 356.167 233.755 355.959 234.094C355.751 234.426 355.646 234.758 355.646 235.09C355.646 235.422 355.721 235.721 355.871 235.988C356.021 236.255 356.245 236.47 356.545 236.633C356.844 236.789 357.219 236.867 357.668 236.867ZM365.627 238V227.453H367.17V229.836L367.102 229.406C367.382 228.801 367.824 228.286 368.43 227.863C369.035 227.434 369.771 227.219 370.637 227.219C371.385 227.219 372.03 227.385 372.57 227.717C373.111 228.049 373.527 228.524 373.82 229.143C374.113 229.755 374.26 230.493 374.26 231.359V238H372.619V231.486C372.619 230.62 372.44 229.921 372.082 229.387C371.73 228.853 371.148 228.586 370.334 228.586C369.455 228.586 368.723 228.921 368.137 229.592C367.557 230.256 367.268 231.219 367.268 232.482V238H365.627ZM381.457 238.234C380.467 238.234 379.611 238.01 378.889 237.561C378.166 237.111 377.609 236.477 377.219 235.656C376.828 234.829 376.633 233.853 376.633 232.727C376.633 231.6 376.828 230.627 377.219 229.807C377.609 228.98 378.166 228.342 378.889 227.893C379.611 227.443 380.467 227.219 381.457 227.219C382.212 227.219 382.886 227.359 383.479 227.639C384.077 227.912 384.582 228.309 384.992 228.83C385.409 229.344 385.715 229.966 385.91 230.695L384.24 231.135C384.058 230.314 383.729 229.686 383.254 229.25C382.785 228.807 382.186 228.586 381.457 228.586C380.487 228.586 379.738 228.947 379.211 229.67C378.69 230.386 378.43 231.405 378.43 232.727C378.43 234.055 378.69 235.077 379.211 235.793C379.738 236.509 380.487 236.867 381.457 236.867C382.18 236.867 382.775 236.656 383.244 236.232C383.713 235.803 384.042 235.184 384.23 234.377L385.891 234.846C385.734 235.38 385.52 235.855 385.246 236.271C384.973 236.688 384.647 237.043 384.27 237.336C383.898 237.629 383.475 237.85 383 238C382.531 238.156 382.017 238.234 381.457 238.234ZM392.561 238.234C391.558 238.234 390.689 238.01 389.953 237.561C389.224 237.111 388.661 236.477 388.264 235.656C387.867 234.829 387.668 233.856 387.668 232.736C387.668 231.61 387.867 230.633 388.264 229.807C388.661 228.98 389.221 228.342 389.943 227.893C390.666 227.443 391.516 227.219 392.492 227.219C393.052 227.219 393.612 227.31 394.172 227.492C394.738 227.668 395.253 227.977 395.715 228.42C396.184 228.856 396.558 229.458 396.838 230.227C397.124 230.988 397.268 231.952 397.268 233.117H388.723V231.789H395.842L395.373 232.404C395.34 231.48 395.191 230.738 394.924 230.178C394.657 229.618 394.309 229.214 393.879 228.967C393.456 228.713 392.984 228.586 392.463 228.586C391.844 228.586 391.311 228.749 390.861 229.074C390.412 229.393 390.067 229.862 389.826 230.48C389.585 231.099 389.465 231.854 389.465 232.746C389.465 234.061 389.732 235.077 390.266 235.793C390.806 236.509 391.571 236.867 392.561 236.867C393.27 236.867 393.866 236.688 394.348 236.33C394.836 235.972 395.194 235.454 395.422 234.777L397.033 235.324C396.779 235.936 396.441 236.46 396.018 236.896C395.594 237.326 395.09 237.658 394.504 237.893C393.924 238.12 393.277 238.234 392.561 238.234Z" fill="url(#paint1_linear_11_731)"/>
<rect x="230.5" y="107.5" width="101" height="59" rx="29.5" stroke="white"/>
<path d="M251.592 147.809V133.453H253.135V135.65L253.086 135.494C253.372 134.726 253.848 134.156 254.512 133.785C255.176 133.408 255.882 133.219 256.631 133.219C257.49 133.219 258.245 133.443 258.896 133.893C259.548 134.342 260.055 134.98 260.42 135.807C260.785 136.633 260.967 137.61 260.967 138.736C260.967 139.863 260.781 140.839 260.41 141.666C260.046 142.486 259.538 143.121 258.887 143.57C258.236 144.013 257.484 144.234 256.631 144.234C255.941 144.234 255.257 144.062 254.58 143.717C253.903 143.372 253.392 142.789 253.047 141.969L253.193 141.891V147.809H251.592ZM256.182 142.867C257.054 142.867 257.77 142.509 258.33 141.793C258.89 141.07 259.17 140.038 259.17 138.697C259.17 137.395 258.9 136.386 258.359 135.67C257.819 134.947 257.1 134.586 256.201 134.586C255.654 134.586 255.15 134.729 254.688 135.016C254.232 135.302 253.867 135.748 253.594 136.354C253.32 136.959 253.184 137.74 253.184 138.697C253.184 140.11 253.477 141.158 254.062 141.842C254.648 142.525 255.355 142.867 256.182 142.867ZM268.311 144.234C267.321 144.234 266.449 144.003 265.693 143.541C264.938 143.072 264.349 142.424 263.926 141.598C263.503 140.771 263.291 139.814 263.291 138.727C263.291 137.639 263.503 136.682 263.926 135.855C264.349 135.029 264.938 134.384 265.693 133.922C266.449 133.453 267.321 133.219 268.311 133.219C269.3 133.219 270.173 133.453 270.928 133.922C271.683 134.384 272.272 135.029 272.695 135.855C273.118 136.682 273.33 137.639 273.33 138.727C273.33 139.814 273.118 140.771 272.695 141.598C272.272 142.424 271.683 143.072 270.928 143.541C270.173 144.003 269.3 144.234 268.311 144.234ZM268.311 142.867C269.307 142.867 270.091 142.496 270.664 141.754C271.243 141.012 271.533 140.003 271.533 138.727C271.533 137.444 271.243 136.435 270.664 135.699C270.091 134.957 269.307 134.586 268.311 134.586C267.314 134.586 266.527 134.957 265.947 135.699C265.374 136.435 265.088 137.444 265.088 138.727C265.088 140.003 265.374 141.012 265.947 141.754C266.527 142.496 267.314 142.867 268.311 142.867ZM280.537 144.234C279.535 144.234 278.665 144.01 277.93 143.561C277.201 143.111 276.637 142.477 276.24 141.656C275.843 140.829 275.645 139.856 275.645 138.736C275.645 137.61 275.843 136.633 276.24 135.807C276.637 134.98 277.197 134.342 277.92 133.893C278.643 133.443 279.492 133.219 280.469 133.219C281.029 133.219 281.589 133.31 282.148 133.492C282.715 133.668 283.229 133.977 283.691 134.42C284.16 134.856 284.535 135.458 284.814 136.227C285.101 136.988 285.244 137.952 285.244 139.117H276.699V137.789H283.818L283.35 138.404C283.317 137.48 283.167 136.738 282.9 136.178C282.633 135.618 282.285 135.214 281.855 134.967C281.432 134.713 280.96 134.586 280.439 134.586C279.821 134.586 279.287 134.749 278.838 135.074C278.389 135.393 278.044 135.862 277.803 136.48C277.562 137.099 277.441 137.854 277.441 138.746C277.441 140.061 277.708 141.077 278.242 141.793C278.783 142.509 279.548 142.867 280.537 142.867C281.247 142.867 281.842 142.688 282.324 142.33C282.812 141.972 283.171 141.454 283.398 140.777L285.01 141.324C284.756 141.936 284.417 142.46 283.994 142.896C283.571 143.326 283.066 143.658 282.48 143.893C281.901 144.12 281.253 144.234 280.537 144.234ZM289.648 144C289.232 144 288.867 143.863 288.555 143.59C288.242 143.31 288.086 142.958 288.086 142.535V134.82H286.387V133.453H288.086V131.246L289.727 130.895V133.453H291.816V134.82H289.727V142.096C289.727 142.311 289.756 142.454 289.814 142.525C289.88 142.597 290.013 142.633 290.215 142.633H291.826V144H289.648ZM294.189 144V133.453H295.732V135.689L295.674 135.436C295.986 134.706 296.455 134.156 297.08 133.785C297.712 133.408 298.35 133.219 298.994 133.219C299.183 133.219 299.365 133.235 299.541 133.268C299.723 133.3 299.893 133.355 300.049 133.434L299.834 134.977C299.476 134.866 299.121 134.811 298.77 134.811C298.548 134.811 298.271 134.856 297.939 134.947C297.614 135.032 297.288 135.208 296.963 135.475C296.644 135.735 296.374 136.126 296.152 136.646C295.938 137.167 295.83 137.861 295.83 138.727V144H294.189ZM302.744 147.809V146.441H304.346C304.463 146.441 304.554 146.402 304.619 146.324C304.684 146.253 304.746 146.135 304.805 145.973L305.566 143.795L305.4 144.547L301.162 133.453H302.998L306.357 143.17L305.996 143.082L309.346 133.453H311.162L306.133 146.627C305.996 146.985 305.765 147.271 305.439 147.486C305.114 147.701 304.775 147.809 304.424 147.809H302.744Z" fill="white"/>
<rect x="133.5" y="19.5" width="136" height="59" rx="29.5" stroke="white" stroke-opacity="0.3"/>
<path d="M154.602 56V41.9375H163.869V43.3828H156.359V47.7969H162.932V49.2422H156.359V54.5547H164.006V56H154.602ZM165.998 56V45.4531H167.541V47.2598C167.788 46.7129 168.199 46.2376 168.771 45.834C169.344 45.4238 170.025 45.2188 170.812 45.2188C171.509 45.2188 172.115 45.4108 172.629 45.7949C173.15 46.1725 173.537 46.7096 173.791 47.4062C174.123 46.7617 174.576 46.2376 175.148 45.834C175.728 45.4238 176.402 45.2188 177.17 45.2188C178.179 45.2188 178.977 45.5866 179.562 46.3223C180.155 47.0514 180.451 48.0638 180.451 49.3594V56H178.811V49.4863C178.811 48.8874 178.749 48.373 178.625 47.9434C178.501 47.5072 178.296 47.1719 178.01 46.9375C177.73 46.7031 177.346 46.5859 176.857 46.5859C176.324 46.5859 175.842 46.7389 175.412 47.0449C174.989 47.3444 174.654 47.7839 174.406 48.3633C174.165 48.9427 174.045 49.6491 174.045 50.4824V56H172.404V49.4863C172.404 48.8874 172.342 48.373 172.219 47.9434C172.095 47.5072 171.893 47.1719 171.613 46.9375C171.333 46.7031 170.952 46.5859 170.471 46.5859C169.937 46.5859 169.455 46.7357 169.025 47.0352C168.596 47.3346 168.257 47.7741 168.01 48.3535C167.762 48.9329 167.639 49.6426 167.639 50.4824V56H165.998ZM186.223 56.2344C185.52 56.2344 184.908 56.1009 184.387 55.834C183.872 55.5605 183.475 55.1895 183.195 54.7207C182.915 54.252 182.775 53.7214 182.775 53.1289C182.775 52.4974 182.961 51.9147 183.332 51.3809C183.703 50.847 184.276 50.4206 185.051 50.1016C185.832 49.776 186.831 49.6133 188.049 49.6133H189.807L189.631 49.7891V49.2129C189.631 48.3665 189.462 47.7188 189.123 47.2695C188.785 46.8138 188.218 46.5859 187.424 46.5859C186.675 46.5859 186.099 46.7812 185.695 47.1719C185.292 47.556 185.077 48.0736 185.051 48.7246L183.205 48.3047C183.264 47.7383 183.479 47.224 183.85 46.7617C184.227 46.293 184.729 45.9186 185.354 45.6387C185.985 45.3587 186.714 45.2188 187.541 45.2188C188.394 45.2188 189.087 45.3815 189.621 45.707C190.161 46.026 190.559 46.4883 190.812 47.0938C191.066 47.6992 191.193 48.4284 191.193 49.2812V54.0957C191.193 54.3105 191.223 54.4538 191.281 54.5254C191.346 54.597 191.48 54.6328 191.682 54.6328H192.277V56H191.232C190.79 56 190.419 55.8633 190.119 55.5898C189.82 55.3099 189.67 54.9583 189.67 54.5352V53.793H189.914C189.81 54.0664 189.66 54.3464 189.465 54.6328C189.27 54.9128 189.022 55.1764 188.723 55.4238C188.423 55.6647 188.065 55.86 187.648 56.0098C187.238 56.1595 186.763 56.2344 186.223 56.2344ZM186.594 54.8672C187.134 54.8672 187.635 54.7337 188.098 54.4668C188.56 54.1999 188.931 53.7832 189.211 53.2168C189.497 52.6439 189.641 51.9017 189.641 50.9902V50.9023H187.99C187.124 50.9023 186.441 51.0163 185.939 51.2441C185.445 51.472 185.093 51.7552 184.885 52.0938C184.676 52.4258 184.572 52.7578 184.572 53.0898C184.572 53.4219 184.647 53.7214 184.797 53.9883C184.947 54.2552 185.171 54.4701 185.471 54.6328C185.77 54.7891 186.145 54.8672 186.594 54.8672ZM194.562 56V45.4531H196.203V56H194.562ZM195.383 43.6855C195.005 43.6855 194.683 43.5521 194.416 43.2852C194.149 43.0182 194.016 42.696 194.016 42.3184C194.016 41.9342 194.149 41.612 194.416 41.3516C194.683 41.0846 195.005 40.9512 195.383 40.9512C195.767 40.9512 196.089 41.0846 196.35 41.3516C196.617 41.612 196.75 41.9342 196.75 42.3184C196.75 42.696 196.617 43.0182 196.35 43.2852C196.089 43.5521 195.767 43.6855 195.383 43.6855ZM200.939 56C200.523 56 200.158 55.8633 199.846 55.5898C199.533 55.3099 199.377 54.9583 199.377 54.5352V41.3516H201.018V54.0957C201.018 54.3105 201.047 54.4538 201.105 54.5254C201.171 54.597 201.304 54.6328 201.506 54.6328H202.531V56H200.939ZM204.777 56V41.9375H210.139C211.512 41.9375 212.613 42.2207 213.439 42.7871C214.266 43.347 214.68 44.1706 214.68 45.2578C214.68 45.9219 214.533 46.4753 214.24 46.918C213.947 47.3542 213.57 47.6927 213.107 47.9336C212.652 48.168 212.17 48.3145 211.662 48.373L211.691 48.334C212.72 48.5033 213.563 48.9069 214.221 49.5449C214.885 50.1829 215.217 51.0749 215.217 52.2207C215.217 53.1517 214.999 53.8939 214.562 54.4473C214.133 55.0007 213.56 55.3978 212.844 55.6387C212.128 55.8796 211.343 56 210.49 56H204.777ZM206.535 54.5547H210.49C211.252 54.5547 211.848 54.4245 212.277 54.1641C212.707 53.8971 213.007 53.5586 213.176 53.1484C213.352 52.7383 213.439 52.3118 213.439 51.8691C213.439 51.2376 213.293 50.7168 213 50.3066C212.707 49.8965 212.294 49.5905 211.76 49.3887C211.226 49.1868 210.594 49.0859 209.865 49.0859H206.535V54.5547ZM206.535 47.6406H210.051C210.819 47.6406 211.477 47.4779 212.023 47.1523C212.57 46.8203 212.844 46.2669 212.844 45.4922C212.844 44.8737 212.632 44.3691 212.209 43.9785C211.792 43.5814 211.105 43.3828 210.148 43.3828H206.535V47.6406ZM219.318 56C218.902 56 218.537 55.8633 218.225 55.5898C217.912 55.3099 217.756 54.9583 217.756 54.5352V41.3516H219.396V54.0957C219.396 54.3105 219.426 54.4538 219.484 54.5254C219.549 54.597 219.683 54.6328 219.885 54.6328H220.91V56H219.318ZM225.715 56.2344C225.012 56.2344 224.4 56.1009 223.879 55.834C223.365 55.5605 222.967 55.1895 222.688 54.7207C222.408 54.252 222.268 53.7214 222.268 53.1289C222.268 52.4974 222.453 51.9147 222.824 51.3809C223.195 50.847 223.768 50.4206 224.543 50.1016C225.324 49.776 226.324 49.6133 227.541 49.6133H229.299L229.123 49.7891V49.2129C229.123 48.3665 228.954 47.7188 228.615 47.2695C228.277 46.8138 227.71 46.5859 226.916 46.5859C226.167 46.5859 225.591 46.7812 225.188 47.1719C224.784 47.556 224.569 48.0736 224.543 48.7246L222.697 48.3047C222.756 47.7383 222.971 47.224 223.342 46.7617C223.719 46.293 224.221 45.9186 224.846 45.6387C225.477 45.3587 226.206 45.2188 227.033 45.2188C227.886 45.2188 228.579 45.3815 229.113 45.707C229.654 46.026 230.051 46.4883 230.305 47.0938C230.559 47.6992 230.686 48.4284 230.686 49.2812V54.0957C230.686 54.3105 230.715 54.4538 230.773 54.5254C230.839 54.597 230.972 54.6328 231.174 54.6328H231.77V56H230.725C230.282 56 229.911 55.8633 229.611 55.5898C229.312 55.3099 229.162 54.9583 229.162 54.5352V53.793H229.406C229.302 54.0664 229.152 54.3464 228.957 54.6328C228.762 54.9128 228.514 55.1764 228.215 55.4238C227.915 55.6647 227.557 55.86 227.141 56.0098C226.73 56.1595 226.255 56.2344 225.715 56.2344ZM226.086 54.8672C226.626 54.8672 227.128 54.7337 227.59 54.4668C228.052 54.1999 228.423 53.7832 228.703 53.2168C228.99 52.6439 229.133 51.9017 229.133 50.9902V50.9023H227.482C226.617 50.9023 225.933 51.0163 225.432 51.2441C224.937 51.472 224.585 51.7552 224.377 52.0938C224.169 52.4258 224.064 52.7578 224.064 53.0898C224.064 53.4219 224.139 53.7214 224.289 53.9883C224.439 54.2552 224.663 54.4701 224.963 54.6328C225.262 54.7891 225.637 54.8672 226.086 54.8672ZM237.648 56.2344C236.887 56.2344 236.193 56.1107 235.568 55.8633C234.95 55.6094 234.436 55.2285 234.025 54.7207C233.615 54.2064 233.342 53.5553 233.205 52.7676L234.924 52.4355C234.995 53.2624 235.275 53.8776 235.764 54.2812C236.258 54.6849 236.877 54.8867 237.619 54.8867C238.355 54.8867 238.941 54.7012 239.377 54.3301C239.813 53.959 240.031 53.5065 240.031 52.9727C240.031 52.5169 239.875 52.1556 239.562 51.8887C239.257 51.6217 238.811 51.4329 238.225 51.3223L236.945 51.0781C236.6 51.013 236.242 50.9219 235.871 50.8047C235.5 50.6875 235.152 50.5247 234.826 50.3164C234.507 50.1081 234.247 49.8346 234.045 49.4961C233.85 49.1576 233.752 48.7311 233.752 48.2168C233.752 47.5267 233.931 46.9635 234.289 46.5273C234.654 46.0846 235.132 45.7559 235.725 45.541C236.324 45.3262 236.968 45.2188 237.658 45.2188C238.413 45.2188 239.071 45.3359 239.631 45.5703C240.191 45.8047 240.646 46.14 240.998 46.5762C241.35 47.0124 241.584 47.5397 241.701 48.1582L239.895 48.5195C239.849 48.1224 239.742 47.7773 239.572 47.4844C239.41 47.1914 239.169 46.9668 238.85 46.8105C238.537 46.6478 238.13 46.5664 237.629 46.5664C237.023 46.5664 236.503 46.6934 236.066 46.9473C235.63 47.2012 235.412 47.5853 235.412 48.0996C235.412 48.3861 235.484 48.6302 235.627 48.832C235.777 49.0339 235.998 49.2031 236.291 49.3398C236.59 49.4701 236.965 49.584 237.414 49.6816L238.713 49.9551C239.26 50.0658 239.764 50.2318 240.227 50.4531C240.689 50.668 241.06 50.9674 241.34 51.3516C241.62 51.7357 241.76 52.2435 241.76 52.875C241.76 53.5716 241.584 54.1738 241.232 54.6816C240.887 55.1829 240.406 55.5671 239.787 55.834C239.175 56.1009 238.462 56.2344 237.648 56.2344ZM246.418 56C246.001 56 245.637 55.8633 245.324 55.5898C245.012 55.3099 244.855 54.9583 244.855 54.5352V46.8203H243.156V45.4531H244.855V43.2461L246.496 42.8945V45.4531H248.586V46.8203H246.496V54.0957C246.496 54.3105 246.525 54.4538 246.584 54.5254C246.649 54.597 246.783 54.6328 246.984 54.6328H248.596V56H246.418Z" fill="white" fill-opacity="0.3"/>
<rect x="363.5" y="127.5" width="194" height="59" rx="29.5" stroke="white" stroke-opacity="0.5"/>
<path d="M384.602 164V149.938H388.85C390.503 149.938 391.857 150.217 392.912 150.777C393.973 151.337 394.758 152.138 395.266 153.18C395.773 154.215 396.027 155.445 396.027 156.871C396.027 158.486 395.728 159.82 395.129 160.875C394.53 161.93 393.684 162.714 392.59 163.229C391.496 163.743 390.207 164 388.723 164H384.602ZM386.359 162.555H388.547C392.264 162.555 394.123 160.693 394.123 156.969C394.123 155.829 393.938 154.843 393.566 154.01C393.202 153.17 392.619 152.522 391.818 152.066C391.024 151.611 389.976 151.383 388.674 151.383H386.359V162.555ZM403.186 164.234C402.183 164.234 401.314 164.01 400.578 163.561C399.849 163.111 399.286 162.477 398.889 161.656C398.492 160.829 398.293 159.856 398.293 158.736C398.293 157.61 398.492 156.633 398.889 155.807C399.286 154.98 399.846 154.342 400.568 153.893C401.291 153.443 402.141 153.219 403.117 153.219C403.677 153.219 404.237 153.31 404.797 153.492C405.363 153.668 405.878 153.977 406.34 154.42C406.809 154.856 407.183 155.458 407.463 156.227C407.749 156.988 407.893 157.952 407.893 159.117H399.348V157.789H406.467L405.998 158.404C405.965 157.48 405.816 156.738 405.549 156.178C405.282 155.618 404.934 155.214 404.504 154.967C404.081 154.713 403.609 154.586 403.088 154.586C402.469 154.586 401.936 154.749 401.486 155.074C401.037 155.393 400.692 155.862 400.451 156.48C400.21 157.099 400.09 157.854 400.09 158.746C400.09 160.061 400.357 161.077 400.891 161.793C401.431 162.509 402.196 162.867 403.186 162.867C403.895 162.867 404.491 162.688 404.973 162.33C405.461 161.972 405.819 161.454 406.047 160.777L407.658 161.324C407.404 161.936 407.066 162.46 406.643 162.896C406.219 163.326 405.715 163.658 405.129 163.893C404.549 164.12 403.902 164.234 403.186 164.234ZM411.916 164C411.499 164 411.135 163.863 410.822 163.59C410.51 163.31 410.354 162.958 410.354 162.535V149.352H411.994V162.096C411.994 162.311 412.023 162.454 412.082 162.525C412.147 162.597 412.281 162.633 412.482 162.633H413.508V164H411.916ZM415.695 164V153.453H417.336V164H415.695ZM416.516 151.686C416.138 151.686 415.816 151.552 415.549 151.285C415.282 151.018 415.148 150.696 415.148 150.318C415.148 149.934 415.282 149.612 415.549 149.352C415.816 149.085 416.138 148.951 416.516 148.951C416.9 148.951 417.222 149.085 417.482 149.352C417.749 149.612 417.883 149.934 417.883 150.318C417.883 150.696 417.749 151.018 417.482 151.285C417.222 151.552 416.9 151.686 416.516 151.686ZM423.303 164L419.338 153.453H421.154L424.504 163.072H424.191L427.521 153.453H429.338L425.393 164H423.303ZM435.393 164.234C434.39 164.234 433.521 164.01 432.785 163.561C432.056 163.111 431.493 162.477 431.096 161.656C430.699 160.829 430.5 159.856 430.5 158.736C430.5 157.61 430.699 156.633 431.096 155.807C431.493 154.98 432.053 154.342 432.775 153.893C433.498 153.443 434.348 153.219 435.324 153.219C435.884 153.219 436.444 153.31 437.004 153.492C437.57 153.668 438.085 153.977 438.547 154.42C439.016 154.856 439.39 155.458 439.67 156.227C439.956 156.988 440.1 157.952 440.1 159.117H431.555V157.789H438.674L438.205 158.404C438.173 157.48 438.023 156.738 437.756 156.178C437.489 155.618 437.141 155.214 436.711 154.967C436.288 154.713 435.816 154.586 435.295 154.586C434.676 154.586 434.143 154.749 433.693 155.074C433.244 155.393 432.899 155.862 432.658 156.48C432.417 157.099 432.297 157.854 432.297 158.746C432.297 160.061 432.564 161.077 433.098 161.793C433.638 162.509 434.403 162.867 435.393 162.867C436.102 162.867 436.698 162.688 437.18 162.33C437.668 161.972 438.026 161.454 438.254 160.777L439.865 161.324C439.611 161.936 439.273 162.46 438.85 162.896C438.426 163.326 437.922 163.658 437.336 163.893C436.757 164.12 436.109 164.234 435.393 164.234ZM442.58 164V153.453H444.123V155.689L444.064 155.436C444.377 154.706 444.846 154.156 445.471 153.785C446.102 153.408 446.74 153.219 447.385 153.219C447.574 153.219 447.756 153.235 447.932 153.268C448.114 153.3 448.283 153.355 448.439 153.434L448.225 154.977C447.867 154.866 447.512 154.811 447.16 154.811C446.939 154.811 446.662 154.856 446.33 154.947C446.005 155.032 445.679 155.208 445.354 155.475C445.035 155.735 444.764 156.126 444.543 156.646C444.328 157.167 444.221 157.861 444.221 158.727V164H442.58ZM451.135 167.809V166.441H452.736C452.854 166.441 452.945 166.402 453.01 166.324C453.075 166.253 453.137 166.135 453.195 165.973L453.957 163.795L453.791 164.547L449.553 153.453H451.389L454.748 163.17L454.387 163.082L457.736 153.453H459.553L454.523 166.627C454.387 166.985 454.156 167.271 453.83 167.486C453.505 167.701 453.166 167.809 452.814 167.809H451.135ZM463.781 164V151.383H458.752V149.938H470.588V151.383H465.539V164H463.781ZM470.666 164V153.453H472.209V155.689L472.15 155.436C472.463 154.706 472.932 154.156 473.557 153.785C474.188 153.408 474.826 153.219 475.471 153.219C475.66 153.219 475.842 153.235 476.018 153.268C476.2 153.3 476.369 153.355 476.525 153.434L476.311 154.977C475.952 154.866 475.598 154.811 475.246 154.811C475.025 154.811 474.748 154.856 474.416 154.947C474.09 155.032 473.765 155.208 473.439 155.475C473.12 155.735 472.85 156.126 472.629 156.646C472.414 157.167 472.307 157.861 472.307 158.727V164H470.666ZM480.773 164.234C480.07 164.234 479.458 164.101 478.938 163.834C478.423 163.561 478.026 163.189 477.746 162.721C477.466 162.252 477.326 161.721 477.326 161.129C477.326 160.497 477.512 159.915 477.883 159.381C478.254 158.847 478.827 158.421 479.602 158.102C480.383 157.776 481.382 157.613 482.6 157.613H484.357L484.182 157.789V157.213C484.182 156.367 484.012 155.719 483.674 155.27C483.335 154.814 482.769 154.586 481.975 154.586C481.226 154.586 480.65 154.781 480.246 155.172C479.842 155.556 479.628 156.074 479.602 156.725L477.756 156.305C477.814 155.738 478.029 155.224 478.4 154.762C478.778 154.293 479.279 153.919 479.904 153.639C480.536 153.359 481.265 153.219 482.092 153.219C482.945 153.219 483.638 153.382 484.172 153.707C484.712 154.026 485.109 154.488 485.363 155.094C485.617 155.699 485.744 156.428 485.744 157.281V162.096C485.744 162.311 485.773 162.454 485.832 162.525C485.897 162.597 486.031 162.633 486.232 162.633H486.828V164H485.783C485.34 164 484.969 163.863 484.67 163.59C484.37 163.31 484.221 162.958 484.221 162.535V161.793H484.465C484.361 162.066 484.211 162.346 484.016 162.633C483.82 162.913 483.573 163.176 483.273 163.424C482.974 163.665 482.616 163.86 482.199 164.01C481.789 164.16 481.314 164.234 480.773 164.234ZM481.145 162.867C481.685 162.867 482.186 162.734 482.648 162.467C483.111 162.2 483.482 161.783 483.762 161.217C484.048 160.644 484.191 159.902 484.191 158.99V158.902H482.541C481.675 158.902 480.992 159.016 480.49 159.244C479.995 159.472 479.644 159.755 479.436 160.094C479.227 160.426 479.123 160.758 479.123 161.09C479.123 161.422 479.198 161.721 479.348 161.988C479.497 162.255 479.722 162.47 480.021 162.633C480.321 162.789 480.695 162.867 481.145 162.867ZM493.312 164.234C492.323 164.234 491.467 164.01 490.744 163.561C490.021 163.111 489.465 162.477 489.074 161.656C488.684 160.829 488.488 159.853 488.488 158.727C488.488 157.6 488.684 156.627 489.074 155.807C489.465 154.98 490.021 154.342 490.744 153.893C491.467 153.443 492.323 153.219 493.312 153.219C494.068 153.219 494.742 153.359 495.334 153.639C495.933 153.912 496.438 154.309 496.848 154.83C497.264 155.344 497.57 155.966 497.766 156.695L496.096 157.135C495.913 156.314 495.585 155.686 495.109 155.25C494.641 154.807 494.042 154.586 493.312 154.586C492.342 154.586 491.594 154.947 491.066 155.67C490.546 156.386 490.285 157.405 490.285 158.727C490.285 160.055 490.546 161.077 491.066 161.793C491.594 162.509 492.342 162.867 493.312 162.867C494.035 162.867 494.631 162.656 495.1 162.232C495.568 161.803 495.897 161.184 496.086 160.377L497.746 160.846C497.59 161.38 497.375 161.855 497.102 162.271C496.828 162.688 496.503 163.043 496.125 163.336C495.754 163.629 495.331 163.85 494.855 164C494.387 164.156 493.872 164.234 493.312 164.234ZM500.148 164V149.352H501.789V158.17L506.74 153.453H508.977L504.621 157.457L509.064 164H507.121L503.43 158.551L501.789 160.064V164H500.148ZM511.047 164V153.453H512.688V164H511.047ZM511.867 151.686C511.49 151.686 511.167 151.552 510.9 151.285C510.633 151.018 510.5 150.696 510.5 150.318C510.5 149.934 510.633 149.612 510.9 149.352C511.167 149.085 511.49 148.951 511.867 148.951C512.251 148.951 512.574 149.085 512.834 149.352C513.101 149.612 513.234 149.934 513.234 150.318C513.234 150.696 513.101 151.018 512.834 151.285C512.574 151.552 512.251 151.686 511.867 151.686ZM515.881 164V153.453H517.424V155.836L517.355 155.406C517.635 154.801 518.078 154.286 518.684 153.863C519.289 153.434 520.025 153.219 520.891 153.219C521.639 153.219 522.284 153.385 522.824 153.717C523.365 154.049 523.781 154.524 524.074 155.143C524.367 155.755 524.514 156.493 524.514 157.359V164H522.873V157.486C522.873 156.62 522.694 155.921 522.336 155.387C521.984 154.853 521.402 154.586 520.588 154.586C519.709 154.586 518.977 154.921 518.391 155.592C517.811 156.256 517.521 157.219 517.521 158.482V164H515.881ZM531.408 168.043C529.839 168.043 528.684 167.822 527.941 167.379C527.199 166.943 526.828 166.266 526.828 165.348C526.828 164.827 526.962 164.361 527.229 163.951C527.495 163.541 527.958 163.225 528.615 163.004C528.368 162.854 528.166 162.656 528.01 162.408C527.854 162.161 527.775 161.884 527.775 161.578C527.775 161.214 527.889 160.888 528.117 160.602C528.345 160.309 528.671 160.1 529.094 159.977C528.573 159.671 528.166 159.257 527.873 158.736C527.587 158.209 527.443 157.597 527.443 156.9C527.443 156.145 527.609 155.494 527.941 154.947C528.28 154.394 528.758 153.967 529.377 153.668C530.002 153.368 530.744 153.219 531.604 153.219C532.463 153.219 533.205 153.368 533.83 153.668C534.462 153.967 534.947 154.394 535.285 154.947C535.63 155.501 535.803 156.158 535.803 156.92C535.803 157.669 535.63 158.316 535.285 158.863C534.947 159.404 534.462 159.824 533.83 160.123C533.199 160.416 532.447 160.562 531.574 160.562H530.666C529.846 160.562 529.436 160.807 529.436 161.295C529.436 161.757 529.833 161.988 530.627 161.988H532.736C533.57 161.988 534.24 162.086 534.748 162.281C535.262 162.47 535.653 162.717 535.92 163.023C536.193 163.323 536.379 163.648 536.477 164C536.574 164.352 536.623 164.687 536.623 165.006C536.623 166.041 536.249 166.806 535.5 167.301C534.751 167.796 533.589 168.043 532.014 168.043H531.408ZM531.408 166.734H532.014C533.954 166.734 534.924 166.155 534.924 164.996C534.924 164.514 534.748 164.12 534.396 163.814C534.051 163.508 533.459 163.355 532.619 163.355H530.803C530.152 163.355 529.608 163.489 529.172 163.756C528.736 164.016 528.518 164.446 528.518 165.045C528.518 165.618 528.752 166.041 529.221 166.314C529.696 166.594 530.425 166.734 531.408 166.734ZM531.604 159.41C532.43 159.41 533.065 159.199 533.508 158.775C533.951 158.346 534.172 157.727 534.172 156.92C534.172 156.119 533.951 155.497 533.508 155.055C533.065 154.612 532.43 154.391 531.604 154.391C530.783 154.391 530.155 154.612 529.719 155.055C529.283 155.491 529.064 156.113 529.064 156.92C529.064 157.727 529.283 158.346 529.719 158.775C530.155 159.199 530.783 159.41 531.604 159.41ZM533.342 154.322V153.277C533.342 152.854 533.498 152.506 533.811 152.232C534.123 151.952 534.488 151.812 534.904 151.812H536.174V153.18H535.129C534.927 153.18 534.794 153.215 534.729 153.287C534.67 153.359 534.641 153.502 534.641 153.717V154.322H533.342Z" fill="white" fill-opacity="0.5"/>
<defs>
<linearGradient id="paint0_linear_11_731" x1="419" y1="246.025" x2="267.388" y2="182.717" gradientUnits="userSpaceOnUse">
<stop stop-color="#CDA5D5"/>
<stop offset="0.473958" stop-color="#FBE4FF"/>
<stop offset="1" stop-color="#E8FE74"/>
</linearGradient>
<linearGradient id="paint1_linear_11_731" x1="399" y1="238.513" x2="303.005" y2="178.261" gradientUnits="userSpaceOnUse">
<stop stop-color="#CDA5D5"/>
<stop offset="0.473958" stop-color="#FBE4FF"/>
<stop offset="1" stop-color="#E8FE74"/>
</linearGradient>
</defs>
</svg>
